<?xml version="1.0" encoding="UTF-8" standalone="no"?>
<!DOCTYPE svg PUBLIC "-//W3C//DTD SVG 1.1//EN"
 "http://www.w3.org/Graphics/SVG/1.1/DTD/svg11.dtd">
<!-- Generated by graphviz version 14.0.1 (20251006.0113)
 -->
<!-- Title: ERD Pages: 1 -->
<svg width="740pt" height="592pt"
 viewBox="0.00 0.00 740.00 592.00" xmlns="http://www.w3.org/2000/svg" xmlns:xlink="http://www.w3.org/1999/xlink">
<g id="graph0" class="graph" transform="scale(1 1) rotate(0) translate(18 573.6)">
<title>ERD</title>
<polygon fill="white" stroke="none" points="-18,18 -18,-573.6 721.98,-573.6 721.98,18 -18,18"/>
<text xml:space="preserve" text-anchor="middle" x="351.99" y="-536.3" font-family="Arial" font-size="17.00">Phiên và xác thực</text>
<!-- AuthSessions -->
<g id="node1" class="node">
<title>AuthSessions</title>
<polygon fill="white" stroke="none" points="289.97,-433 289.97,-507.4 384.44,-507.4 384.44,-433 289.97,-433"/>
<polygon fill="#183b56" stroke="none" points="289.97,-481 289.97,-507.4 384.44,-507.4 384.44,-481 289.97,-481"/>
<polygon fill="none" stroke="#bdd1dc" points="289.97,-481 289.97,-507.4 384.44,-507.4 384.44,-481 289.97,-481"/>
<text xml:space="preserve" text-anchor="start" x="297.2" y="-491.6" font-family="Arial" font-weight="bold" font-size="12.00" fill="white">AuthSessions</text>
<polygon fill="none" stroke="#bdd1dc" points="289.97,-457 289.97,-481 313.97,-481 313.97,-457 289.97,-457"/>
<text xml:space="preserve" text-anchor="start" x="295.97" y="-466.3" font-family="Arial" font-size="9.00" fill="#183b56">PK</text>
<polygon fill="none" stroke="#bdd1dc" points="313.97,-457 313.97,-481 355.43,-481 355.43,-457 313.97,-457"/>
<text xml:space="preserve" text-anchor="start" x="319.97" y="-466" font-family="Arial" font-size="10.00">Id</text>
<polygon fill="none" stroke="#bdd1dc" points="355.43,-457 355.43,-481 384.44,-481 384.44,-457 355.43,-457"/>
<text xml:space="preserve" text-anchor="start" x="361.43" y="-466.3" font-family="Arial" font-size="9.00" fill="#536475">uuid</text>
<polygon fill="none" stroke="#bdd1dc" points="289.97,-433 289.97,-457 313.97,-457 313.97,-433 289.97,-433"/>
<text xml:space="preserve" text-anchor="start" x="295.97" y="-442.3" font-family="Arial" font-size="9.00" fill="#167d8d">FK</text>
<polygon fill="none" stroke="#bdd1dc" points="313.97,-433 313.97,-457 355.43,-457 355.43,-433 313.97,-433"/>
<text xml:space="preserve" text-anchor="start" x="319.97" y="-442" font-family="Arial" font-size="10.00">UserId</text>
<polygon fill="none" stroke="#bdd1dc" points="355.43,-433 355.43,-457 384.44,-457 384.44,-433 355.43,-433"/>
<text xml:space="preserve" text-anchor="start" x="361.43" y="-442.3" font-family="Arial" font-size="9.00" fill="#536475">uuid</text>
</g>
<!-- RefreshTokens -->
<g id="node2" class="node">
<title>RefreshTokens</title>
<polygon fill="white" stroke="none" points="541.4,-354 541.4,-476.4 703.98,-476.4 703.98,-354 541.4,-354"/>
<polygon fill="#183b56" stroke="none" points="541.4,-450 541.4,-476.4 703.98,-476.4 703.98,-450 541.4,-450"/>
<polygon fill="none" stroke="#bdd1dc" points="541.4,-450 541.4,-476.4 703.98,-476.4 703.98,-450 541.4,-450"/>
<text xml:space="preserve" text-anchor="start" x="579.34" y="-460.6" font-family="Arial" font-weight="bold" font-size="12.00" fill="white">RefreshTokens</text>
<polygon fill="none" stroke="#bdd1dc" points="541.4,-426 541.4,-450 565.41,-450 565.41,-426 541.4,-426"/>
<text xml:space="preserve" text-anchor="start" x="547.4" y="-435.3" font-family="Arial" font-size="9.00" fill="#183b56">PK</text>
<polygon fill="none" stroke="#bdd1dc" points="565.41,-426 565.41,-450 667.46,-450 667.46,-426 565.41,-426"/>
<text xml:space="preserve" text-anchor="start" x="571.41" y="-435" font-family="Arial" font-size="10.00">Id</text>
<polygon fill="none" stroke="#bdd1dc" points="667.46,-426 667.46,-450 703.98,-450 703.98,-426 667.46,-426"/>
<text xml:space="preserve" text-anchor="start" x="673.46" y="-435.3" font-family="Arial" font-size="9.00" fill="#536475">uuid</text>
<polygon fill="none" stroke="#bdd1dc" points="541.4,-402 541.4,-426 565.41,-426 565.41,-402 541.4,-402"/>
<text xml:space="preserve" text-anchor="start" x="547.4" y="-411.3" font-family="Arial" font-size="9.00" fill="#167d8d">FK</text>
<polygon fill="none" stroke="#bdd1dc" points="565.41,-402 565.41,-426 667.46,-426 667.46,-402 565.41,-402"/>
<text xml:space="preserve" text-anchor="start" x="571.41" y="-411" font-family="Arial" font-size="10.00">ReplacedByTokenId</text>
<polygon fill="none" stroke="#bdd1dc" points="667.46,-402 667.46,-426 703.98,-426 703.98,-402 667.46,-402"/>
<text xml:space="preserve" text-anchor="start" x="673.46" y="-411.3" font-family="Arial" font-size="9.00" fill="#536475">uuid ?</text>
<polygon fill="none" stroke="#bdd1dc" points="541.4,-378 541.4,-402 565.41,-402 565.41,-378 541.4,-378"/>
<text xml:space="preserve" text-anchor="start" x="547.4" y="-387.3" font-family="Arial" font-size="9.00" fill="#167d8d">FK</text>
<polygon fill="none" stroke="#bdd1dc" points="565.41,-378 565.41,-402 667.46,-402 667.46,-378 565.41,-378"/>
<text xml:space="preserve" text-anchor="start" x="571.41" y="-387" font-family="Arial" font-size="10.00">SessionId</text>
<polygon fill="none" stroke="#bdd1dc" points="667.46,-378 667.46,-402 703.98,-402 703.98,-378 667.46,-378"/>
<text xml:space="preserve" text-anchor="start" x="673.46" y="-387.3" font-family="Arial" font-size="9.00" fill="#536475">uuid</text>
<polygon fill="none" stroke="#bdd1dc" points="541.4,-354 541.4,-378 565.41,-378 565.41,-354 541.4,-354"/>
<text xml:space="preserve" text-anchor="start" x="547.4" y="-363.3" font-family="Arial" font-size="9.00" fill="#167d8d">FK</text>
<polygon fill="none" stroke="#bdd1dc" points="565.41,-354 565.41,-378 667.46,-378 667.46,-354 565.41,-354"/>
<text xml:space="preserve" text-anchor="start" x="571.41" y="-363" font-family="Arial" font-size="10.00">UserId</text>
<polygon fill="none" stroke="#bdd1dc" points="667.46,-354 667.46,-378 703.98,-378 703.98,-354 667.46,-354"/>
<text xml:space="preserve" text-anchor="start" x="673.46" y="-363.3" font-family="Arial" font-size="9.00" fill="#536475">uuid</text>
</g>
<!-- AuthSessions&#45;&gt;RefreshTokens -->
<g id="edge3" class="edge">
<title>AuthSessions&#45;&gt;RefreshTokens</title>
<path fill="none" stroke="#167d8d" stroke-width="1.4" d="M384.38,-461.24C424.42,-453.47 483.49,-442.01 532.69,-432.47"/>
<polygon fill="#167d8d" stroke="#167d8d" stroke-width="1.4" points="532.95,-434.91 539.35,-431.17 532.02,-430.1 532.95,-434.91"/>
<text xml:space="preserve" text-anchor="middle" x="481.64" y="-448.69" font-family="Arial" font-size="9.00" fill="#35556b">SessionId</text>
<text xml:space="preserve" text-anchor="middle" x="524.94" y="-423.95" font-family="Arial" font-size="9.00" fill="#35556b">0..n</text>
<text xml:space="preserve" text-anchor="middle" x="400.88" y="-462.66" font-family="Arial" font-size="9.00" fill="#35556b">1</text>
</g>
<!-- RefreshTokens&#45;&gt;RefreshTokens -->
<g id="edge2" class="edge">
<title>RefreshTokens&#45;&gt;RefreshTokens</title>
<path fill="none" stroke="#167d8d" stroke-width="1.4" d="M596.28,-476.21C595.64,-498.33 604.44,-516.4 622.69,-516.4 638.38,-516.4 647.09,-503.05 648.82,-485.26"/>
<polygon fill="#167d8d" stroke="#167d8d" stroke-width="1.4" points="651.26,-485.4 649.04,-478.33 646.37,-485.25 651.26,-485.4"/>
<text xml:space="preserve" text-anchor="middle" x="622.69" y="-519.1" font-family="Arial" font-size="9.00" fill="#35556b">ReplacedByTokenId</text>
<text xml:space="preserve" text-anchor="middle" x="641.43" y="-488.68" font-family="Arial" font-size="9.00" fill="#35556b">0..n</text>
<text xml:space="preserve" text-anchor="middle" x="589.31" y="-489.02" font-family="Arial" font-size="9.00" fill="#35556b">0..1</text>
</g>
<!-- ExternalLoginTickets -->
<g id="node3" class="node">
<title>ExternalLoginTickets</title>
<polygon fill="white" stroke="none" points="270.52,-228 270.52,-302.4 403.89,-302.4 403.89,-228 270.52,-228"/>
<polygon fill="#183b56" stroke="none" points="270.52,-276 270.52,-302.4 403.89,-302.4 403.89,-276 270.52,-276"/>
<polygon fill="none" stroke="#bdd1dc" points="270.52,-276 270.52,-302.4 403.89,-302.4 403.89,-276 270.52,-276"/>
<text xml:space="preserve" text-anchor="start" x="276.52" y="-286.6" font-family="Arial" font-weight="bold" font-size="12.00" fill="white">ExternalLoginTickets</text>
<polygon fill="none" stroke="#bdd1dc" points="270.52,-252 270.52,-276 307.49,-276 307.49,-252 270.52,-252"/>
<text xml:space="preserve" text-anchor="start" x="276.52" y="-261.3" font-family="Arial" font-size="9.00" fill="#183b56">PK</text>
<polygon fill="none" stroke="#bdd1dc" points="307.49,-252 307.49,-276 361.91,-276 361.91,-252 307.49,-252"/>
<text xml:space="preserve" text-anchor="start" x="313.49" y="-261" font-family="Arial" font-size="10.00">Id</text>
<polygon fill="none" stroke="#bdd1dc" points="361.91,-252 361.91,-276 403.89,-276 403.89,-252 361.91,-252"/>
<text xml:space="preserve" text-anchor="start" x="367.91" y="-261.3" font-family="Arial" font-size="9.00" fill="#536475">uuid</text>
<polygon fill="none" stroke="#bdd1dc" points="270.52,-228 270.52,-252 307.49,-252 307.49,-228 270.52,-228"/>
<text xml:space="preserve" text-anchor="start" x="276.52" y="-237.3" font-family="Arial" font-size="9.00" fill="#167d8d">FK</text>
<polygon fill="none" stroke="#bdd1dc" points="307.49,-228 307.49,-252 361.91,-252 361.91,-228 307.49,-228"/>
<text xml:space="preserve" text-anchor="start" x="313.49" y="-237" font-family="Arial" font-size="10.00">UserId</text>
<polygon fill="none" stroke="#bdd1dc" points="361.91,-228 361.91,-252 403.89,-252 403.89,-228 361.91,-228"/>
<text xml:space="preserve" text-anchor="start" x="367.91" y="-237.3" font-family="Arial" font-size="9.00" fill="#536475">uuid</text>
</g>
<!-- PasswordResetOtps -->
<g id="node4" class="node">
<title>PasswordResetOtps</title>
<polygon fill="white" stroke="none" points="272.85,-114 272.85,-188.4 401.56,-188.4 401.56,-114 272.85,-114"/>
<polygon fill="#183b56" stroke="none" points="272.85,-162 272.85,-188.4 401.56,-188.4 401.56,-162 272.85,-162"/>
<polygon fill="none" stroke="#bdd1dc" points="272.85,-162 272.85,-188.4 401.56,-188.4 401.56,-162 272.85,-162"/>
<text xml:space="preserve" text-anchor="start" x="278.85" y="-172.6" font-family="Arial" font-weight="bold" font-size="12.00" fill="white">PasswordResetOtps</text>
<polygon fill="none" stroke="#bdd1dc" points="272.85,-138 272.85,-162 308.27,-162 308.27,-138 272.85,-138"/>
<text xml:space="preserve" text-anchor="start" x="278.85" y="-147.3" font-family="Arial" font-size="9.00" fill="#183b56">PK</text>
<polygon fill="none" stroke="#bdd1dc" points="308.27,-138 308.27,-162 361.13,-162 361.13,-138 308.27,-138"/>
<text xml:space="preserve" text-anchor="start" x="314.27" y="-147" font-family="Arial" font-size="10.00">Id</text>
<polygon fill="none" stroke="#bdd1dc" points="361.13,-138 361.13,-162 401.56,-162 401.56,-138 361.13,-138"/>
<text xml:space="preserve" text-anchor="start" x="367.13" y="-147.3" font-family="Arial" font-size="9.00" fill="#536475">uuid</text>
<polygon fill="none" stroke="#bdd1dc" points="272.85,-114 272.85,-138 308.27,-138 308.27,-114 272.85,-114"/>
<text xml:space="preserve" text-anchor="start" x="278.85" y="-123.3" font-family="Arial" font-size="9.00" fill="#167d8d">FK</text>
<polygon fill="none" stroke="#bdd1dc" points="308.27,-114 308.27,-138 361.13,-138 361.13,-114 308.27,-114"/>
<text xml:space="preserve" text-anchor="start" x="314.27" y="-123" font-family="Arial" font-size="10.00">UserId</text>
<polygon fill="none" stroke="#bdd1dc" points="361.13,-114 361.13,-138 401.56,-138 401.56,-114 361.13,-114"/>
<text xml:space="preserve" text-anchor="start" x="367.13" y="-123.3" font-family="Arial" font-size="9.00" fill="#536475">uuid</text>
</g>
<!-- RegistrationChallenges -->
<g id="node5" class="node">
<title>RegistrationChallenges</title>
<polygon fill="white" stroke="none" points="0,-342 0,-392.4 146.03,-392.4 146.03,-342 0,-342"/>
<polygon fill="#183b56" stroke="none" points="0,-366 0,-392.4 146.03,-392.4 146.03,-366 0,-366"/>
<polygon fill="none" stroke="#bdd1dc" points="0,-366 0,-392.4 146.03,-392.4 146.03,-366 0,-366"/>
<text xml:space="preserve" text-anchor="start" x="6" y="-376.6" font-family="Arial" font-weight="bold" font-size="12.00" fill="white">RegistrationChallenges</text>
<polygon fill="none" stroke="#bdd1dc" points="0,-342 0,-366 48.23,-366 48.23,-342 0,-342"/>
<text xml:space="preserve" text-anchor="start" x="6" y="-351.3" font-family="Arial" font-size="9.00" fill="#183b56">PK</text>
<polygon fill="none" stroke="#bdd1dc" points="48.23,-342 48.23,-366 92.79,-366 92.79,-342 48.23,-342"/>
<text xml:space="preserve" text-anchor="start" x="54.23" y="-351" font-family="Arial" font-size="10.00">Id</text>
<polygon fill="none" stroke="#bdd1dc" points="92.79,-342 92.79,-366 146.03,-366 146.03,-342 92.79,-342"/>
<text xml:space="preserve" text-anchor="start" x="98.79" y="-351.3" font-family="Arial" font-size="9.00" fill="#536475">uuid</text>
</g>
<!-- TwoFactorLoginChallenges -->
<g id="node6" class="node">
<title>TwoFactorLoginChallenges</title>
<polygon fill="white" stroke="none" points="252.54,0 252.54,-74.4 421.88,-74.4 421.88,0 252.54,0"/>
<polygon fill="#183b56" stroke="none" points="252.54,-48 252.54,-74.4 421.88,-74.4 421.88,-48 252.54,-48"/>
<polygon fill="none" stroke="#bdd1dc" points="252.54,-48 252.54,-74.4 421.88,-74.4 421.88,-48 252.54,-48"/>
<text xml:space="preserve" text-anchor="start" x="258.54" y="-58.6" font-family="Arial" font-weight="bold" font-size="12.00" fill="white">TwoFactorLoginChallenges</text>
<polygon fill="none" stroke="#bdd1dc" points="252.54,-24 252.54,-48 301.5,-48 301.5,-24 252.54,-24"/>
<text xml:space="preserve" text-anchor="start" x="258.54" y="-33.3" font-family="Arial" font-size="9.00" fill="#183b56">PK</text>
<polygon fill="none" stroke="#bdd1dc" points="301.5,-24 301.5,-48 367.91,-48 367.91,-24 301.5,-24"/>
<text xml:space="preserve" text-anchor="start" x="307.5" y="-33" font-family="Arial" font-size="10.00">Id</text>
<polygon fill="none" stroke="#bdd1dc" points="367.91,-24 367.91,-48 421.88,-48 421.88,-24 367.91,-24"/>
<text xml:space="preserve" text-anchor="start" x="373.91" y="-33.3" font-family="Arial" font-size="9.00" fill="#536475">uuid</text>
<polygon fill="none" stroke="#bdd1dc" points="252.54,0 252.54,-24 301.5,-24 301.5,0 252.54,0"/>
<text xml:space="preserve" text-anchor="start" x="258.54" y="-9.3" font-family="Arial" font-size="9.00" fill="#167d8d">FK</text>
<polygon fill="none" stroke="#bdd1dc" points="301.5,0 301.5,-24 367.91,-24 367.91,0 301.5,0"/>
<text xml:space="preserve" text-anchor="start" x="307.5" y="-9" font-family="Arial" font-size="10.00">UserId</text>
<polygon fill="none" stroke="#bdd1dc" points="367.91,0 367.91,-24 421.88,-24 421.88,0 367.91,0"/>
<text xml:space="preserve" text-anchor="start" x="373.91" y="-9.3" font-family="Arial" font-size="9.00" fill="#536475">uuid</text>
</g>
<!-- AspNetUsers -->
<g id="node7" class="node">
<title>AspNetUsers</title>
<polygon fill="white" stroke="none" points="13.25,-228.6 13.25,-301.8 132.78,-301.8 132.78,-228.6 13.25,-228.6"/>
<polygon fill="#6b7d8c" stroke="none" points="13.25,-275.4 13.25,-301.8 132.78,-301.8 132.78,-275.4 13.25,-275.4"/>
<polygon fill="none" stroke="#bdd1dc" points="13.25,-275.4 13.25,-301.8 132.78,-301.8 132.78,-275.4 13.25,-275.4"/>
<text xml:space="preserve" text-anchor="start" x="35.33" y="-286" font-family="Arial" font-weight="bold" font-size="12.00" fill="white">AspNetUsers</text>
<polygon fill="none" stroke="#bdd1dc" points="13.25,-252.6 13.25,-275.4 132.78,-275.4 132.78,-252.6 13.25,-252.6"/>
<text xml:space="preserve" text-anchor="start" x="19.25" y="-261.3" font-family="Arial" font-size="9.00" fill="#667788">tham chiếu từ sơ đồ khác</text>
<polygon fill="none" stroke="#bdd1dc" points="13.25,-228.6 13.25,-252.6 52.64,-252.6 52.64,-228.6 13.25,-228.6"/>
<text xml:space="preserve" text-anchor="start" x="19.25" y="-237.9" font-family="Arial" font-size="9.00" fill="#183b56">PK</text>
<polygon fill="none" stroke="#bdd1dc" points="52.64,-228.6 52.64,-252.6 88.37,-252.6 88.37,-228.6 52.64,-228.6"/>
<text xml:space="preserve" text-anchor="start" x="58.64" y="-237.6" font-family="Arial" font-size="10.00">Id</text>
<polygon fill="none" stroke="#bdd1dc" points="88.37,-228.6 88.37,-252.6 132.78,-252.6 132.78,-228.6 88.37,-228.6"/>
<text xml:space="preserve" text-anchor="start" x="94.37" y="-237.9" font-family="Arial" font-size="9.00" fill="#536475">uuid</text>
</g>
<!-- AspNetUsers&#45;&gt;AuthSessions -->
<g id="edge1" class="edge">
<title>AspNetUsers&#45;&gt;AuthSessions</title>
<path fill="none" stroke="#167d8d" stroke-width="1.4" d="M126.47,-301.61C133.59,-307.95 140.37,-314.88 146.03,-322.2 173.03,-357.16 154,-382.77 186.03,-413.2 212.18,-438.04 250.24,-452.33 281.5,-460.39"/>
<polygon fill="#167d8d" stroke="#167d8d" stroke-width="1.4" points="280.68,-462.71 288.06,-462 281.85,-457.95 280.68,-462.71"/>
<text xml:space="preserve" text-anchor="middle" x="199.28" y="-434.21" font-family="Arial" font-size="9.00" fill="#35556b">UserId</text>
<text xml:space="preserve" text-anchor="middle" x="276.87" y="-449.16" font-family="Arial" font-size="9.00" fill="#35556b">0..n</text>
<text xml:space="preserve" text-anchor="middle" x="133.09" y="-314.57" font-family="Arial" font-size="9.00" fill="#35556b">1</text>
</g>
<!-- AspNetUsers&#45;&gt;RefreshTokens -->
<g id="edge4" class="edge">
<title>AspNetUsers&#45;&gt;RefreshTokens</title>
<path fill="none" stroke="#167d8d" stroke-width="1.4" d="M132.43,-284.86C167.16,-296.3 212.18,-310.69 252.54,-322.2 347.85,-349.39 458.18,-376.64 533.22,-394.55"/>
<polygon fill="#167d8d" stroke="#167d8d" stroke-width="1.4" points="532.3,-396.85 539.68,-396.09 533.43,-392.08 532.3,-396.85"/>
<text xml:space="preserve" text-anchor="middle" x="337.21" y="-369.64" font-family="Arial" font-size="9.00" fill="#35556b">UserId</text>
<text xml:space="preserve" text-anchor="middle" x="528.41" y="-383.32" font-family="Arial" font-size="9.00" fill="#35556b">0..n</text>
<text xml:space="preserve" text-anchor="middle" x="144.83" y="-293.79" font-family="Arial" font-size="9.00" fill="#35556b">1</text>
</g>
<!-- AspNetUsers&#45;&gt;ExternalLoginTickets -->
<g id="edge5" class="edge">
<title>AspNetUsers&#45;&gt;ExternalLoginTickets</title>
<path fill="none" stroke="#167d8d" stroke-width="1.4" d="M132.53,-265.2C170.77,-265.2 221.05,-265.2 262.09,-265.2"/>
<polygon fill="#167d8d" stroke="#167d8d" stroke-width="1.4" points="261.84,-267.65 268.84,-265.2 261.84,-262.75 261.84,-267.65"/>
<text xml:space="preserve" text-anchor="middle" x="199.28" y="-267.9" font-family="Arial" font-size="9.00" fill="#35556b">UserId</text>
<text xml:space="preserve" text-anchor="middle" x="255.56" y="-255.32" font-family="Arial" font-size="9.00" fill="#35556b">0..n</text>
<text xml:space="preserve" text-anchor="middle" x="147.94" y="-269.68" font-family="Arial" font-size="9.00" fill="#35556b">1</text>
</g>
<!-- AspNetUsers&#45;&gt;PasswordResetOtps -->
<g id="edge6" class="edge">
<title>AspNetUsers&#45;&gt;PasswordResetOtps</title>
<path fill="none" stroke="#167d8d" stroke-width="1.4" d="M132.53,-239.76C171.72,-222.72 223.55,-200.18 265.12,-182.11"/>
<polygon fill="#167d8d" stroke="#167d8d" stroke-width="1.4" points="265.91,-184.44 271.35,-179.4 263.95,-179.94 265.91,-184.44"/>
<text xml:space="preserve" text-anchor="middle" x="199.28" y="-217.73" font-family="Arial" font-size="9.00" fill="#35556b">UserId</text>
<text xml:space="preserve" text-anchor="middle" x="256.3" y="-175.41" font-family="Arial" font-size="9.00" fill="#35556b">0..1</text>
<text xml:space="preserve" text-anchor="middle" x="149.52" y="-237.5" font-family="Arial" font-size="9.00" fill="#35556b">1</text>
</g>
<!-- AspNetUsers&#45;&gt;TwoFactorLoginChallenges -->
<g id="edge7" class="edge">
<title>AspNetUsers&#45;&gt;TwoFactorLoginChallenges</title>
<path fill="none" stroke="#167d8d" stroke-width="1.4" d="M108.65,-228.66C143.49,-192.72 199.52,-137.16 252.54,-94.2 258.65,-89.24 265.19,-84.28 271.82,-79.45"/>
<polygon fill="#167d8d" stroke="#167d8d" stroke-width="1.4" points="273.04,-81.59 277.3,-75.52 270.19,-77.61 273.04,-81.59"/>
<text xml:space="preserve" text-anchor="middle" x="199.28" y="-155.11" font-family="Arial" font-size="9.00" fill="#35556b">UserId</text>
<text xml:space="preserve" text-anchor="middle" x="262.32" y="-74.73" font-family="Arial" font-size="9.00" fill="#35556b">0..n</text>
<text xml:space="preserve" text-anchor="middle" x="124.55" y="-219.95" font-family="Arial" font-size="9.00" fill="#35556b">1</text>
</g>
</g>
</svg>
