<?xml version="1.0" encoding="UTF-8" standalone="no"?>
<!DOCTYPE svg PUBLIC "-//W3C//DTD SVG 1.1//EN"
 "http://www.w3.org/Graphics/SVG/1.1/DTD/svg11.dtd">
<!-- Generated by graphviz version 14.0.1 (20251006.0113)
 -->
<!-- Title: ERD Pages: 1 -->
<svg width="801pt" height="490pt"
 viewBox="0.00 0.00 801.00 490.00" xmlns="http://www.w3.org/2000/svg" xmlns:xlink="http://www.w3.org/1999/xlink">
<g id="graph0" class="graph" transform="scale(1 1) rotate(0) translate(18 472.22)">
<title>ERD</title>
<polygon fill="white" stroke="none" points="-18,18 -18,-472.22 782.95,-472.22 782.95,18 -18,18"/>
<text xml:space="preserve" text-anchor="middle" x="382.47" y="-434.92" font-family="Arial" font-size="17.00">Hội thoại, thành viên và mốc đọc</text>
<!-- Conversations -->
<g id="node1" class="node">
<title>Conversations</title>
<polygon fill="white" stroke="none" points="255.07,-237.4 255.07,-383.8 389.31,-383.8 389.31,-237.4 255.07,-237.4"/>
<polygon fill="#183b56" stroke="none" points="255.07,-357.4 255.07,-383.8 389.31,-383.8 389.31,-357.4 255.07,-357.4"/>
<polygon fill="none" stroke="#bdd1dc" points="255.07,-357.4 255.07,-383.8 389.31,-383.8 389.31,-357.4 255.07,-357.4"/>
<text xml:space="preserve" text-anchor="start" x="280.51" y="-368" font-family="Arial" font-weight="bold" font-size="12.00" fill="white">Conversations</text>
<polygon fill="none" stroke="#bdd1dc" points="255.07,-333.4 255.07,-357.4 279.08,-357.4 279.08,-333.4 255.07,-333.4"/>
<text xml:space="preserve" text-anchor="start" x="261.07" y="-342.7" font-family="Arial" font-size="9.00" fill="#183b56">PK</text>
<polygon fill="none" stroke="#bdd1dc" points="279.08,-333.4 279.08,-357.4 352.79,-357.4 352.79,-333.4 279.08,-333.4"/>
<text xml:space="preserve" text-anchor="start" x="285.08" y="-342.4" font-family="Arial" font-size="10.00">Id</text>
<polygon fill="none" stroke="#bdd1dc" points="352.79,-333.4 352.79,-357.4 389.31,-357.4 389.31,-333.4 352.79,-333.4"/>
<text xml:space="preserve" text-anchor="start" x="358.79" y="-342.7" font-family="Arial" font-size="9.00" fill="#536475">uuid</text>
<polygon fill="none" stroke="#bdd1dc" points="255.07,-309.4 255.07,-333.4 279.08,-333.4 279.08,-309.4 255.07,-309.4"/>
<text xml:space="preserve" text-anchor="start" x="261.07" y="-318.7" font-family="Arial" font-size="9.00" fill="#167d8d">FK</text>
<polygon fill="none" stroke="#bdd1dc" points="279.08,-309.4 279.08,-333.4 352.79,-333.4 352.79,-309.4 279.08,-309.4"/>
<text xml:space="preserve" text-anchor="start" x="285.08" y="-318.4" font-family="Arial" font-size="10.00">PhotoMediaId</text>
<polygon fill="none" stroke="#bdd1dc" points="352.79,-309.4 352.79,-333.4 389.31,-333.4 389.31,-309.4 352.79,-309.4"/>
<text xml:space="preserve" text-anchor="start" x="358.79" y="-318.7" font-family="Arial" font-size="9.00" fill="#536475">uuid ?</text>
<polygon fill="none" stroke="#bdd1dc" points="255.07,-285.4 255.07,-309.4 279.08,-309.4 279.08,-285.4 255.07,-285.4"/>
<text xml:space="preserve" text-anchor="start" x="261.07" y="-294.7" font-family="Arial" font-size="9.00" fill="#183b56"> </text>
<polygon fill="none" stroke="#bdd1dc" points="279.08,-285.4 279.08,-309.4 352.79,-309.4 352.79,-285.4 279.08,-285.4"/>
<text xml:space="preserve" text-anchor="start" x="285.08" y="-294.4" font-family="Arial" font-size="10.00">Type</text>
<polygon fill="none" stroke="#bdd1dc" points="352.79,-285.4 352.79,-309.4 389.31,-309.4 389.31,-285.4 352.79,-285.4"/>
<text xml:space="preserve" text-anchor="start" x="358.79" y="-294.7" font-family="Arial" font-size="9.00" fill="#536475">int</text>
<polygon fill="none" stroke="#bdd1dc" points="255.07,-261.4 255.07,-285.4 279.08,-285.4 279.08,-261.4 255.07,-261.4"/>
<text xml:space="preserve" text-anchor="start" x="261.07" y="-270.7" font-family="Arial" font-size="9.00" fill="#167d8d">FK</text>
<polygon fill="none" stroke="#bdd1dc" points="279.08,-261.4 279.08,-285.4 352.79,-285.4 352.79,-261.4 279.08,-261.4"/>
<text xml:space="preserve" text-anchor="start" x="285.08" y="-270.4" font-family="Arial" font-size="10.00">UserId1</text>
<polygon fill="none" stroke="#bdd1dc" points="352.79,-261.4 352.79,-285.4 389.31,-285.4 389.31,-261.4 352.79,-261.4"/>
<text xml:space="preserve" text-anchor="start" x="358.79" y="-270.7" font-family="Arial" font-size="9.00" fill="#536475">uuid ?</text>
<polygon fill="none" stroke="#bdd1dc" points="255.07,-237.4 255.07,-261.4 279.08,-261.4 279.08,-237.4 255.07,-237.4"/>
<text xml:space="preserve" text-anchor="start" x="261.07" y="-246.7" font-family="Arial" font-size="9.00" fill="#167d8d">FK</text>
<polygon fill="none" stroke="#bdd1dc" points="279.08,-237.4 279.08,-261.4 352.79,-261.4 352.79,-237.4 279.08,-237.4"/>
<text xml:space="preserve" text-anchor="start" x="285.08" y="-246.4" font-family="Arial" font-size="10.00">UserId2</text>
<polygon fill="none" stroke="#bdd1dc" points="352.79,-237.4 352.79,-261.4 389.31,-261.4 389.31,-237.4 352.79,-237.4"/>
<text xml:space="preserve" text-anchor="start" x="358.79" y="-246.7" font-family="Arial" font-size="9.00" fill="#536475">uuid ?</text>
</g>
<!-- ConversationParticipants -->
<g id="node2" class="node">
<title>ConversationParticipants</title>
<polygon fill="white" stroke="none" points="568.36,-94.4 568.36,-240.8 764.95,-240.8 764.95,-94.4 568.36,-94.4"/>
<polygon fill="#183b56" stroke="none" points="568.36,-214.4 568.36,-240.8 764.95,-240.8 764.95,-214.4 568.36,-214.4"/>
<polygon fill="none" stroke="#bdd1dc" points="568.36,-214.4 568.36,-240.8 764.95,-240.8 764.95,-214.4 568.36,-214.4"/>
<text xml:space="preserve" text-anchor="start" x="593.97" y="-225" font-family="Arial" font-weight="bold" font-size="12.00" fill="white">ConversationParticipants</text>
<polygon fill="none" stroke="#bdd1dc" points="568.36,-190.4 568.36,-214.4 606.37,-214.4 606.37,-190.4 568.36,-190.4"/>
<text xml:space="preserve" text-anchor="start" x="574.36" y="-199.7" font-family="Arial" font-size="9.00" fill="#167d8d">PK/FK</text>
<polygon fill="none" stroke="#bdd1dc" points="606.37,-190.4 606.37,-214.4 728.43,-214.4 728.43,-190.4 606.37,-190.4"/>
<text xml:space="preserve" text-anchor="start" x="612.37" y="-199.4" font-family="Arial" font-size="10.00">ConversationId</text>
<polygon fill="none" stroke="#bdd1dc" points="728.43,-190.4 728.43,-214.4 764.95,-214.4 764.95,-190.4 728.43,-190.4"/>
<text xml:space="preserve" text-anchor="start" x="734.43" y="-199.7" font-family="Arial" font-size="9.00" fill="#536475">uuid</text>
<polygon fill="none" stroke="#bdd1dc" points="568.36,-166.4 568.36,-190.4 606.37,-190.4 606.37,-166.4 568.36,-166.4"/>
<text xml:space="preserve" text-anchor="start" x="574.36" y="-175.7" font-family="Arial" font-size="9.00" fill="#167d8d">PK/FK</text>
<polygon fill="none" stroke="#bdd1dc" points="606.37,-166.4 606.37,-190.4 728.43,-190.4 728.43,-166.4 606.37,-166.4"/>
<text xml:space="preserve" text-anchor="start" x="612.37" y="-175.4" font-family="Arial" font-size="10.00">UserId</text>
<polygon fill="none" stroke="#bdd1dc" points="728.43,-166.4 728.43,-190.4 764.95,-190.4 764.95,-166.4 728.43,-166.4"/>
<text xml:space="preserve" text-anchor="start" x="734.43" y="-175.7" font-family="Arial" font-size="9.00" fill="#536475">uuid</text>
<polygon fill="none" stroke="#bdd1dc" points="568.36,-142.4 568.36,-166.4 606.37,-166.4 606.37,-142.4 568.36,-142.4"/>
<text xml:space="preserve" text-anchor="start" x="574.36" y="-151.7" font-family="Arial" font-size="9.00" fill="#167d8d">FK</text>
<polygon fill="none" stroke="#bdd1dc" points="606.37,-142.4 606.37,-166.4 728.43,-166.4 728.43,-142.4 606.37,-142.4"/>
<text xml:space="preserve" text-anchor="start" x="612.37" y="-151.4" font-family="Arial" font-size="10.00">LastDeliveredMessageId</text>
<polygon fill="none" stroke="#bdd1dc" points="728.43,-142.4 728.43,-166.4 764.95,-166.4 764.95,-142.4 728.43,-142.4"/>
<text xml:space="preserve" text-anchor="start" x="734.43" y="-151.7" font-family="Arial" font-size="9.00" fill="#536475">uuid ?</text>
<polygon fill="none" stroke="#bdd1dc" points="568.36,-118.4 568.36,-142.4 606.37,-142.4 606.37,-118.4 568.36,-118.4"/>
<text xml:space="preserve" text-anchor="start" x="574.36" y="-127.7" font-family="Arial" font-size="9.00" fill="#167d8d">FK</text>
<polygon fill="none" stroke="#bdd1dc" points="606.37,-118.4 606.37,-142.4 728.43,-142.4 728.43,-118.4 606.37,-118.4"/>
<text xml:space="preserve" text-anchor="start" x="612.37" y="-127.4" font-family="Arial" font-size="10.00">LastReadMessageId</text>
<polygon fill="none" stroke="#bdd1dc" points="728.43,-118.4 728.43,-142.4 764.95,-142.4 764.95,-118.4 728.43,-118.4"/>
<text xml:space="preserve" text-anchor="start" x="734.43" y="-127.7" font-family="Arial" font-size="9.00" fill="#536475">uuid ?</text>
<polygon fill="none" stroke="#bdd1dc" points="568.36,-94.4 568.36,-118.4 606.37,-118.4 606.37,-94.4 568.36,-94.4"/>
<text xml:space="preserve" text-anchor="start" x="574.36" y="-103.7" font-family="Arial" font-size="9.00" fill="#183b56"> </text>
<polygon fill="none" stroke="#bdd1dc" points="606.37,-94.4 606.37,-118.4 728.43,-118.4 728.43,-94.4 606.37,-94.4"/>
<text xml:space="preserve" text-anchor="start" x="612.37" y="-103.4" font-family="Arial" font-size="10.00">Role</text>
<polygon fill="none" stroke="#bdd1dc" points="728.43,-94.4 728.43,-118.4 764.95,-118.4 764.95,-94.4 728.43,-94.4"/>
<text xml:space="preserve" text-anchor="start" x="734.43" y="-103.7" font-family="Arial" font-size="9.00" fill="#536475">int</text>
</g>
<!-- Conversations&#45;&gt;ConversationParticipants -->
<g id="edge4" class="edge">
<title>Conversations&#45;&gt;ConversationParticipants</title>
<path fill="none" stroke="#167d8d" stroke-width="1.4" d="M389,-302.13C430.3,-295.23 483.94,-283.32 528.36,-263.6 540.14,-258.37 551.95,-252.08 563.43,-245.25"/>
<polygon fill="#167d8d" stroke="#167d8d" stroke-width="1.4" points="564.41,-247.52 569.11,-241.79 561.86,-243.34 564.41,-247.52"/>
<text xml:space="preserve" text-anchor="middle" x="478.83" y="-296.98" font-family="Arial" font-size="9.00" fill="#35556b">ConversationId</text>
<text xml:space="preserve" text-anchor="middle" x="554.03" y="-239.86" font-family="Arial" font-size="9.00" fill="#35556b">0..n</text>
<text xml:space="preserve" text-anchor="middle" x="405.42" y="-303.86" font-family="Arial" font-size="9.00" fill="#35556b">1</text>
</g>
<!-- ConversationReadCursors -->
<g id="node3" class="node">
<title>ConversationReadCursors</title>
<polygon fill="white" stroke="none" points="577.53,-314.4 577.53,-412.8 755.78,-412.8 755.78,-314.4 577.53,-314.4"/>
<polygon fill="#183b56" stroke="none" points="577.53,-386.4 577.53,-412.8 755.78,-412.8 755.78,-386.4 577.53,-386.4"/>
<polygon fill="none" stroke="#bdd1dc" points="577.53,-386.4 577.53,-412.8 755.78,-412.8 755.78,-386.4 577.53,-386.4"/>
<text xml:space="preserve" text-anchor="start" x="590.64" y="-397" font-family="Arial" font-weight="bold" font-size="12.00" fill="white">ConversationReadCursors</text>
<polygon fill="none" stroke="#bdd1dc" points="577.53,-362.4 577.53,-386.4 615.54,-386.4 615.54,-362.4 577.53,-362.4"/>
<text xml:space="preserve" text-anchor="start" x="583.53" y="-371.7" font-family="Arial" font-size="9.00" fill="#167d8d">PK/FK</text>
<polygon fill="none" stroke="#bdd1dc" points="615.54,-362.4 615.54,-386.4 719.26,-386.4 719.26,-362.4 615.54,-362.4"/>
<text xml:space="preserve" text-anchor="start" x="621.54" y="-371.4" font-family="Arial" font-size="10.00">ConversationId</text>
<polygon fill="none" stroke="#bdd1dc" points="719.26,-362.4 719.26,-386.4 755.78,-386.4 755.78,-362.4 719.26,-362.4"/>
<text xml:space="preserve" text-anchor="start" x="725.26" y="-371.7" font-family="Arial" font-size="9.00" fill="#536475">uuid</text>
<polygon fill="none" stroke="#bdd1dc" points="577.53,-338.4 577.53,-362.4 615.54,-362.4 615.54,-338.4 577.53,-338.4"/>
<text xml:space="preserve" text-anchor="start" x="583.53" y="-347.7" font-family="Arial" font-size="9.00" fill="#167d8d">PK/FK</text>
<polygon fill="none" stroke="#bdd1dc" points="615.54,-338.4 615.54,-362.4 719.26,-362.4 719.26,-338.4 615.54,-338.4"/>
<text xml:space="preserve" text-anchor="start" x="621.54" y="-347.4" font-family="Arial" font-size="10.00">UserId</text>
<polygon fill="none" stroke="#bdd1dc" points="719.26,-338.4 719.26,-362.4 755.78,-362.4 755.78,-338.4 719.26,-338.4"/>
<text xml:space="preserve" text-anchor="start" x="725.26" y="-347.7" font-family="Arial" font-size="9.00" fill="#536475">uuid</text>
<polygon fill="none" stroke="#bdd1dc" points="577.53,-314.4 577.53,-338.4 615.54,-338.4 615.54,-314.4 577.53,-314.4"/>
<text xml:space="preserve" text-anchor="start" x="583.53" y="-323.7" font-family="Arial" font-size="9.00" fill="#167d8d">FK</text>
<polygon fill="none" stroke="#bdd1dc" points="615.54,-314.4 615.54,-338.4 719.26,-338.4 719.26,-314.4 615.54,-314.4"/>
<text xml:space="preserve" text-anchor="start" x="621.54" y="-323.4" font-family="Arial" font-size="10.00">LastReadMessageId</text>
<polygon fill="none" stroke="#bdd1dc" points="719.26,-314.4 719.26,-338.4 755.78,-338.4 755.78,-314.4 719.26,-314.4"/>
<text xml:space="preserve" text-anchor="start" x="725.26" y="-323.7" font-family="Arial" font-size="9.00" fill="#536475">uuid ?</text>
</g>
<!-- Conversations&#45;&gt;ConversationReadCursors -->
<g id="edge8" class="edge">
<title>Conversations&#45;&gt;ConversationReadCursors</title>
<path fill="none" stroke="#167d8d" stroke-width="1.4" d="M389.22,-320.82C440.25,-328.72 511.62,-339.76 569.06,-348.65"/>
<polygon fill="#167d8d" stroke="#167d8d" stroke-width="1.4" points="568.41,-351.03 575.7,-349.68 569.16,-346.19 568.41,-351.03"/>
<text xml:space="preserve" text-anchor="middle" x="478.83" y="-344.55" font-family="Arial" font-size="9.00" fill="#35556b">ConversationId</text>
<text xml:space="preserve" text-anchor="middle" x="563.67" y="-337.85" font-family="Arial" font-size="9.00" fill="#35556b">0..n</text>
<text xml:space="preserve" text-anchor="middle" x="403.35" y="-327.58" font-family="Arial" font-size="9.00" fill="#35556b">1</text>
</g>
<!-- AspNetUsers -->
<g id="node4" class="node">
<title>AspNetUsers</title>
<polygon fill="white" stroke="none" points="0,-274 0,-347.2 119.53,-347.2 119.53,-274 0,-274"/>
<polygon fill="#6b7d8c" stroke="none" points="0,-320.8 0,-347.2 119.53,-347.2 119.53,-320.8 0,-320.8"/>
<polygon fill="none" stroke="#bdd1dc" points="0,-320.8 0,-347.2 119.53,-347.2 119.53,-320.8 0,-320.8"/>
<text xml:space="preserve" text-anchor="start" x="22.09" y="-331.4" font-family="Arial" font-weight="bold" font-size="12.00" fill="white">AspNetUsers</text>
<polygon fill="none" stroke="#bdd1dc" points="0,-298 0,-320.8 119.53,-320.8 119.53,-298 0,-298"/>
<text xml:space="preserve" text-anchor="start" x="6" y="-306.7" font-family="Arial" font-size="9.00" fill="#667788">tham chiếu từ sơ đồ khác</text>
<polygon fill="none" stroke="#bdd1dc" points="0,-274 0,-298 39.4,-298 39.4,-274 0,-274"/>
<text xml:space="preserve" text-anchor="start" x="6" y="-283.3" font-family="Arial" font-size="9.00" fill="#183b56">PK</text>
<polygon fill="none" stroke="#bdd1dc" points="39.4,-274 39.4,-298 75.13,-298 75.13,-274 39.4,-274"/>
<text xml:space="preserve" text-anchor="start" x="45.4" y="-283" font-family="Arial" font-size="10.00">Id</text>
<polygon fill="none" stroke="#bdd1dc" points="75.13,-274 75.13,-298 119.53,-298 119.53,-274 75.13,-274"/>
<text xml:space="preserve" text-anchor="start" x="81.13" y="-283.3" font-family="Arial" font-size="9.00" fill="#536475">uuid</text>
</g>
<!-- AspNetUsers&#45;&gt;Conversations -->
<g id="edge2" class="edge">
<title>AspNetUsers&#45;&gt;Conversations</title>
<path fill="none" stroke="#167d8d" stroke-width="1.4" d="M119.21,-310.6C156.72,-310.6 205.77,-310.6 246.14,-310.6"/>
<polygon fill="#167d8d" stroke="#167d8d" stroke-width="1.4" points="246.03,-313.05 253.03,-310.6 246.03,-308.15 246.03,-313.05"/>
<text xml:space="preserve" text-anchor="middle" x="187.3" y="-313.3" font-family="Arial" font-size="9.00" fill="#35556b">UserId1</text>
<text xml:space="preserve" text-anchor="middle" x="239.74" y="-300.72" font-family="Arial" font-size="9.00" fill="#35556b">0..n</text>
<text xml:space="preserve" text-anchor="middle" x="134.62" y="-315.08" font-family="Arial" font-size="9.00" fill="#35556b">0..1</text>
</g>
<!-- AspNetUsers&#45;&gt;Conversations -->
<g id="edge3" class="edge">
<title>AspNetUsers&#45;&gt;Conversations</title>
<path fill="none" stroke="#167d8d" stroke-width="1.4" d="M119.47,-296.15C132.57,-293.51 146.46,-291.16 159.53,-289.8 184.08,-287.24 190.5,-287.41 215.07,-289.8 225.29,-290.79 235.99,-292.31 246.49,-294.08"/>
<polygon fill="#167d8d" stroke="#167d8d" stroke-width="1.4" points="245.85,-296.46 253.16,-295.26 246.7,-291.63 245.85,-296.46"/>
<text xml:space="preserve" text-anchor="middle" x="187.3" y="-292.5" font-family="Arial" font-size="9.00" fill="#35556b">UserId2</text>
<text xml:space="preserve" text-anchor="middle" x="241.32" y="-283.18" font-family="Arial" font-size="9.00" fill="#35556b">0..n</text>
<text xml:space="preserve" text-anchor="middle" x="135.98" y="-297.51" font-family="Arial" font-size="9.00" fill="#35556b">0..1</text>
</g>
<!-- AspNetUsers&#45;&gt;ConversationParticipants -->
<g id="edge7" class="edge">
<title>AspNetUsers&#45;&gt;ConversationParticipants</title>
<path fill="none" stroke="#167d8d" stroke-width="1.4" d="M79.97,-274.27C109.59,-222.62 171.83,-130.09 255.07,-92.8 352.82,-49.01 474.59,-80.74 560.04,-115.37"/>
<polygon fill="#167d8d" stroke="#167d8d" stroke-width="1.4" points="559.09,-117.62 566.49,-118.02 560.96,-113.09 559.09,-117.62"/>
<text xml:space="preserve" text-anchor="middle" x="322.19" y="-95.5" font-family="Arial" font-size="9.00" fill="#35556b">UserId</text>
<text xml:space="preserve" text-anchor="middle" x="556.94" y="-103.62" font-family="Arial" font-size="9.00" fill="#35556b">0..n</text>
<text xml:space="preserve" text-anchor="middle" x="94" y="-261.98" font-family="Arial" font-size="9.00" fill="#35556b">1</text>
</g>
<!-- AspNetUsers&#45;&gt;ConversationReadCursors -->
<g id="edge10" class="edge">
<title>AspNetUsers&#45;&gt;ConversationReadCursors</title>
<path fill="none" stroke="#167d8d" stroke-width="1.4" d="M119.06,-346.99C156.4,-368.1 206.75,-392.63 255.07,-403.6 360.81,-427.6 485.08,-409.23 568.98,-390.2"/>
<polygon fill="#167d8d" stroke="#167d8d" stroke-width="1.4" points="569.4,-392.62 575.67,-388.66 568.3,-387.84 569.4,-392.62"/>
<text xml:space="preserve" text-anchor="middle" x="322.19" y="-417.72" font-family="Arial" font-size="9.00" fill="#35556b">UserId</text>
<text xml:space="preserve" text-anchor="middle" x="561.1" y="-381.94" font-family="Arial" font-size="9.00" fill="#35556b">0..n</text>
<text xml:space="preserve" text-anchor="middle" x="129.05" y="-358.05" font-family="Arial" font-size="9.00" fill="#35556b">1</text>
</g>
<!-- MediaAssets -->
<g id="node5" class="node">
<title>MediaAssets</title>
<polygon fill="white" stroke="none" points="0,0 0,-73.2 119.53,-73.2 119.53,0 0,0"/>
<polygon fill="#6b7d8c" stroke="none" points="0,-46.8 0,-73.2 119.53,-73.2 119.53,-46.8 0,-46.8"/>
<polygon fill="none" stroke="#bdd1dc" points="0,-46.8 0,-73.2 119.53,-73.2 119.53,-46.8 0,-46.8"/>
<text xml:space="preserve" text-anchor="start" x="23.08" y="-57.4" font-family="Arial" font-weight="bold" font-size="12.00" fill="white">MediaAssets</text>
<polygon fill="none" stroke="#bdd1dc" points="0,-24 0,-46.8 119.53,-46.8 119.53,-24 0,-24"/>
<text xml:space="preserve" text-anchor="start" x="6" y="-32.7" font-family="Arial" font-size="9.00" fill="#667788">tham chiếu từ sơ đồ khác</text>
<polygon fill="none" stroke="#bdd1dc" points="0,0 0,-24 39.4,-24 39.4,0 0,0"/>
<text xml:space="preserve" text-anchor="start" x="6" y="-9.3" font-family="Arial" font-size="9.00" fill="#183b56">PK</text>
<polygon fill="none" stroke="#bdd1dc" points="39.4,0 39.4,-24 75.13,-24 75.13,0 39.4,0"/>
<text xml:space="preserve" text-anchor="start" x="45.4" y="-9" font-family="Arial" font-size="10.00">Id</text>
<polygon fill="none" stroke="#bdd1dc" points="75.13,0 75.13,-24 119.53,-24 119.53,0 75.13,0"/>
<text xml:space="preserve" text-anchor="start" x="81.13" y="-9.3" font-family="Arial" font-size="9.00" fill="#536475">uuid</text>
</g>
<!-- MediaAssets&#45;&gt;Conversations -->
<g id="edge1" class="edge">
<title>MediaAssets&#45;&gt;Conversations</title>
<path fill="none" stroke="#167d8d" stroke-width="1.4" d="M95.35,-72.99C134.37,-114.04 198.93,-181.97 249.05,-234.7"/>
<polygon fill="#167d8d" stroke="#167d8d" stroke-width="1.4" points="247.03,-236.13 253.63,-239.52 250.58,-232.76 247.03,-236.13"/>
<text xml:space="preserve" text-anchor="middle" x="187.3" y="-200.84" font-family="Arial" font-size="9.00" fill="#35556b">PhotoMediaId</text>
<text xml:space="preserve" text-anchor="middle" x="249.68" y="-222.24" font-family="Arial" font-size="9.00" fill="#35556b">0..n</text>
<text xml:space="preserve" text-anchor="middle" x="100.76" y="-86.4" font-family="Arial" font-size="9.00" fill="#35556b">0..1</text>
</g>
<!-- Messages -->
<g id="node6" class="node">
<title>Messages</title>
<polygon fill="white" stroke="none" points="262.42,-124 262.42,-197.2 381.96,-197.2 381.96,-124 262.42,-124"/>
<polygon fill="#6b7d8c" stroke="none" points="262.42,-170.8 262.42,-197.2 381.96,-197.2 381.96,-170.8 262.42,-170.8"/>
<polygon fill="none" stroke="#bdd1dc" points="262.42,-170.8 262.42,-197.2 381.96,-197.2 381.96,-170.8 262.42,-170.8"/>
<text xml:space="preserve" text-anchor="start" x="293.51" y="-181.4" font-family="Arial" font-weight="bold" font-size="12.00" fill="white">Messages</text>
<polygon fill="none" stroke="#bdd1dc" points="262.42,-148 262.42,-170.8 381.96,-170.8 381.96,-148 262.42,-148"/>
<text xml:space="preserve" text-anchor="start" x="268.42" y="-156.7" font-family="Arial" font-size="9.00" fill="#667788">tham chiếu từ sơ đồ khác</text>
<polygon fill="none" stroke="#bdd1dc" points="262.42,-124 262.42,-148 301.82,-148 301.82,-124 262.42,-124"/>
<text xml:space="preserve" text-anchor="start" x="268.42" y="-133.3" font-family="Arial" font-size="9.00" fill="#183b56">PK</text>
<polygon fill="none" stroke="#bdd1dc" points="301.82,-124 301.82,-148 337.55,-148 337.55,-124 301.82,-124"/>
<text xml:space="preserve" text-anchor="start" x="307.82" y="-133" font-family="Arial" font-size="10.00">Id</text>
<polygon fill="none" stroke="#bdd1dc" points="337.55,-124 337.55,-148 381.96,-148 381.96,-124 337.55,-124"/>
<text xml:space="preserve" text-anchor="start" x="343.55" y="-133.3" font-family="Arial" font-size="9.00" fill="#536475">uuid</text>
</g>
<!-- Messages&#45;&gt;ConversationParticipants -->
<g id="edge5" class="edge">
<title>Messages&#45;&gt;ConversationParticipants</title>
<path fill="none" stroke="#167d8d" stroke-width="1.4" d="M381.8,-146.35C397.16,-143.23 413.78,-140.38 429.31,-138.8 473.11,-134.35 484.57,-134.26 528.36,-138.8 538.58,-139.86 549.16,-141.35 559.7,-143.11"/>
<polygon fill="#167d8d" stroke="#167d8d" stroke-width="1.4" points="559.14,-145.5 566.46,-144.28 559.98,-140.67 559.14,-145.5"/>
<text xml:space="preserve" text-anchor="middle" x="478.83" y="-141.5" font-family="Arial" font-size="9.00" fill="#35556b">LastDeliveredMessageId</text>
<text xml:space="preserve" text-anchor="middle" x="554.59" y="-132.23" font-family="Arial" font-size="9.00" fill="#35556b">0..n</text>
<text xml:space="preserve" text-anchor="middle" x="398.32" y="-147.68" font-family="Arial" font-size="9.00" fill="#35556b">0..1</text>
</g>
<!-- Messages&#45;&gt;ConversationParticipants -->
<g id="edge6" class="edge">
<title>Messages&#45;&gt;ConversationParticipants</title>
<path fill="none" stroke="#167d8d" stroke-width="1.4" d="M381.67,-161.8C430.37,-162.79 500.97,-164.23 559.59,-165.43"/>
<polygon fill="#167d8d" stroke="#167d8d" stroke-width="1.4" points="559.36,-167.88 566.41,-165.57 559.46,-162.98 559.36,-167.88"/>
<text xml:space="preserve" text-anchor="middle" x="478.83" y="-167.43" font-family="Arial" font-size="9.00" fill="#35556b">LastReadMessageId</text>
<text xml:space="preserve" text-anchor="middle" x="553.27" y="-155.42" font-family="Arial" font-size="9.00" fill="#35556b">0..n</text>
<text xml:space="preserve" text-anchor="middle" x="396.93" y="-166.59" font-family="Arial" font-size="9.00" fill="#35556b">0..1</text>
</g>
<!-- Messages&#45;&gt;ConversationReadCursors -->
<g id="edge9" class="edge">
<title>Messages&#45;&gt;ConversationReadCursors</title>
<path fill="none" stroke="#167d8d" stroke-width="1.4" d="M381.9,-181.46C424.12,-197.63 481.62,-222.08 528.36,-250.8 555.39,-267.41 582.86,-288.88 606.06,-308.62"/>
<polygon fill="#167d8d" stroke="#167d8d" stroke-width="1.4" points="604.29,-310.33 611.19,-313.03 607.48,-306.61 604.29,-310.33"/>
<text xml:space="preserve" text-anchor="middle" x="478.83" y="-253.5" font-family="Arial" font-size="9.00" fill="#35556b">LastReadMessageId</text>
<text xml:space="preserve" text-anchor="middle" x="605.79" y="-296.22" font-family="Arial" font-size="9.00" fill="#35556b">0..n</text>
<text xml:space="preserve" text-anchor="middle" x="393.66" y="-191.05" font-family="Arial" font-size="9.00" fill="#35556b">0..1</text>
</g>
</g>
</svg>
