<?xml version="1.0" encoding="UTF-8" standalone="no"?>
<!DOCTYPE svg PUBLIC "-//W3C//DTD SVG 1.1//EN"
 "http://www.w3.org/Graphics/SVG/1.1/DTD/svg11.dtd">
<!-- Generated by graphviz version 14.0.1 (20251006.0113)
 -->
<!-- Title: ERD Pages: 1 -->
<svg width="748pt" height="540pt"
 viewBox="0.00 0.00 748.00 540.00" xmlns="http://www.w3.org/2000/svg" xmlns:xlink="http://www.w3.org/1999/xlink">
<g id="graph0" class="graph" transform="scale(1 1) rotate(0) translate(18 521.98)">
<title>ERD</title>
<polygon fill="white" stroke="none" points="-18,18 -18,-521.98 729.71,-521.98 729.71,18 -18,18"/>
<text xml:space="preserve" text-anchor="middle" x="355.85" y="-484.68" font-family="Arial" font-size="17.00">Sự kiện</text>
<!-- Events -->
<g id="node1" class="node">
<title>Events</title>
<polygon fill="white" stroke="none" points="268.56,-37.18 268.56,-231.58 423.78,-231.58 423.78,-37.18 268.56,-37.18"/>
<polygon fill="#183b56" stroke="none" points="268.56,-205.18 268.56,-231.58 423.78,-231.58 423.78,-205.18 268.56,-205.18"/>
<polygon fill="none" stroke="#bdd1dc" points="268.56,-205.18 268.56,-231.58 423.78,-231.58 423.78,-205.18 268.56,-205.18"/>
<text xml:space="preserve" text-anchor="start" x="326.5" y="-215.78" font-family="Arial" font-weight="bold" font-size="12.00" fill="white">Events</text>
<polygon fill="none" stroke="#bdd1dc" points="268.56,-181.18 268.56,-205.18 298.56,-205.18 298.56,-181.18 268.56,-181.18"/>
<text xml:space="preserve" text-anchor="start" x="274.56" y="-190.48" font-family="Arial" font-size="9.00" fill="#183b56">PK</text>
<polygon fill="none" stroke="#bdd1dc" points="298.56,-181.18 298.56,-205.18 387.26,-205.18 387.26,-181.18 298.56,-181.18"/>
<text xml:space="preserve" text-anchor="start" x="304.56" y="-190.18" font-family="Arial" font-size="10.00">Id</text>
<polygon fill="none" stroke="#bdd1dc" points="387.26,-181.18 387.26,-205.18 423.78,-205.18 423.78,-181.18 387.26,-181.18"/>
<text xml:space="preserve" text-anchor="start" x="393.26" y="-190.48" font-family="Arial" font-size="9.00" fill="#536475">uuid</text>
<polygon fill="none" stroke="#bdd1dc" points="268.56,-157.18 268.56,-181.18 298.56,-181.18 298.56,-157.18 268.56,-157.18"/>
<text xml:space="preserve" text-anchor="start" x="274.56" y="-166.48" font-family="Arial" font-size="9.00" fill="#167d8d">FK</text>
<polygon fill="none" stroke="#bdd1dc" points="298.56,-157.18 298.56,-181.18 387.26,-181.18 387.26,-157.18 298.56,-157.18"/>
<text xml:space="preserve" text-anchor="start" x="304.56" y="-166.18" font-family="Arial" font-size="10.00">CoverMediaId</text>
<polygon fill="none" stroke="#bdd1dc" points="387.26,-157.18 387.26,-181.18 423.78,-181.18 423.78,-157.18 387.26,-157.18"/>
<text xml:space="preserve" text-anchor="start" x="393.26" y="-166.48" font-family="Arial" font-size="9.00" fill="#536475">uuid ?</text>
<polygon fill="none" stroke="#bdd1dc" points="268.56,-133.18 268.56,-157.18 298.56,-157.18 298.56,-133.18 268.56,-133.18"/>
<text xml:space="preserve" text-anchor="start" x="274.56" y="-142.48" font-family="Arial" font-size="9.00" fill="#167d8d">FK</text>
<polygon fill="none" stroke="#bdd1dc" points="298.56,-133.18 298.56,-157.18 387.26,-157.18 387.26,-133.18 298.56,-133.18"/>
<text xml:space="preserve" text-anchor="start" x="304.56" y="-142.18" font-family="Arial" font-size="10.00">CreatedByUserId</text>
<polygon fill="none" stroke="#bdd1dc" points="387.26,-133.18 387.26,-157.18 423.78,-157.18 423.78,-133.18 387.26,-133.18"/>
<text xml:space="preserve" text-anchor="start" x="393.26" y="-142.48" font-family="Arial" font-size="9.00" fill="#536475">uuid</text>
<polygon fill="none" stroke="#bdd1dc" points="268.56,-109.18 268.56,-133.18 298.56,-133.18 298.56,-109.18 268.56,-109.18"/>
<text xml:space="preserve" text-anchor="start" x="274.56" y="-118.48" font-family="Arial" font-size="9.00" fill="#af7722">REF</text>
<polygon fill="none" stroke="#bdd1dc" points="298.56,-109.18 298.56,-133.18 387.26,-133.18 387.26,-109.18 298.56,-109.18"/>
<text xml:space="preserve" text-anchor="start" x="304.56" y="-118.18" font-family="Arial" font-size="10.00">HostId</text>
<polygon fill="none" stroke="#bdd1dc" points="387.26,-109.18 387.26,-133.18 423.78,-133.18 423.78,-109.18 387.26,-109.18"/>
<text xml:space="preserve" text-anchor="start" x="393.26" y="-118.48" font-family="Arial" font-size="9.00" fill="#536475">uuid</text>
<polygon fill="none" stroke="#bdd1dc" points="268.56,-85.18 268.56,-109.18 298.56,-109.18 298.56,-85.18 268.56,-85.18"/>
<text xml:space="preserve" text-anchor="start" x="274.56" y="-94.48" font-family="Arial" font-size="9.00" fill="#af7722">REF</text>
<polygon fill="none" stroke="#bdd1dc" points="298.56,-85.18 298.56,-109.18 387.26,-109.18 387.26,-85.18 298.56,-85.18"/>
<text xml:space="preserve" text-anchor="start" x="304.56" y="-94.18" font-family="Arial" font-size="10.00">HostType</text>
<polygon fill="none" stroke="#bdd1dc" points="387.26,-85.18 387.26,-109.18 423.78,-109.18 423.78,-85.18 387.26,-85.18"/>
<text xml:space="preserve" text-anchor="start" x="393.26" y="-94.48" font-family="Arial" font-size="9.00" fill="#536475">int</text>
<polygon fill="none" stroke="#bdd1dc" points="268.56,-61.18 268.56,-85.18 298.56,-85.18 298.56,-61.18 268.56,-61.18"/>
<text xml:space="preserve" text-anchor="start" x="274.56" y="-70.48" font-family="Arial" font-size="9.00" fill="#183b56"> </text>
<polygon fill="none" stroke="#bdd1dc" points="298.56,-61.18 298.56,-85.18 387.26,-85.18 387.26,-61.18 298.56,-61.18"/>
<text xml:space="preserve" text-anchor="start" x="304.56" y="-70.18" font-family="Arial" font-size="10.00">Privacy</text>
<polygon fill="none" stroke="#bdd1dc" points="387.26,-61.18 387.26,-85.18 423.78,-85.18 423.78,-61.18 387.26,-61.18"/>
<text xml:space="preserve" text-anchor="start" x="393.26" y="-70.48" font-family="Arial" font-size="9.00" fill="#536475">int</text>
<polygon fill="none" stroke="#bdd1dc" points="268.56,-37.18 268.56,-61.18 298.56,-61.18 298.56,-37.18 268.56,-37.18"/>
<text xml:space="preserve" text-anchor="start" x="274.56" y="-46.48" font-family="Arial" font-size="9.00" fill="#183b56"> </text>
<polygon fill="none" stroke="#bdd1dc" points="298.56,-37.18 298.56,-61.18 387.26,-61.18 387.26,-37.18 298.56,-37.18"/>
<text xml:space="preserve" text-anchor="start" x="304.56" y="-46.18" font-family="Arial" font-size="10.00">Status</text>
<polygon fill="none" stroke="#bdd1dc" points="387.26,-37.18 387.26,-61.18 423.78,-61.18 423.78,-37.18 387.26,-37.18"/>
<text xml:space="preserve" text-anchor="start" x="393.26" y="-46.48" font-family="Arial" font-size="9.00" fill="#536475">int</text>
</g>
<!-- EventParticipants -->
<g id="node2" class="node">
<title>EventParticipants</title>
<polygon fill="white" stroke="none" points="566.32,-146.18 566.32,-244.58 679.69,-244.58 679.69,-146.18 566.32,-146.18"/>
<polygon fill="#183b56" stroke="none" points="566.32,-218.18 566.32,-244.58 679.69,-244.58 679.69,-218.18 566.32,-218.18"/>
<polygon fill="none" stroke="#bdd1dc" points="566.32,-218.18 566.32,-244.58 679.69,-244.58 679.69,-218.18 566.32,-218.18"/>
<text xml:space="preserve" text-anchor="start" x="572.32" y="-228.78" font-family="Arial" font-weight="bold" font-size="12.00" fill="white">EventParticipants</text>
<polygon fill="none" stroke="#bdd1dc" points="566.32,-194.18 566.32,-218.18 604.47,-218.18 604.47,-194.18 566.32,-194.18"/>
<text xml:space="preserve" text-anchor="start" x="572.32" y="-203.48" font-family="Arial" font-size="9.00" fill="#167d8d">PK/FK</text>
<polygon fill="none" stroke="#bdd1dc" points="604.47,-194.18 604.47,-218.18 650.53,-218.18 650.53,-194.18 604.47,-194.18"/>
<text xml:space="preserve" text-anchor="start" x="610.47" y="-203.18" font-family="Arial" font-size="10.00">EventId</text>
<polygon fill="none" stroke="#bdd1dc" points="650.53,-194.18 650.53,-218.18 679.69,-218.18 679.69,-194.18 650.53,-194.18"/>
<text xml:space="preserve" text-anchor="start" x="656.53" y="-203.48" font-family="Arial" font-size="9.00" fill="#536475">uuid</text>
<polygon fill="none" stroke="#bdd1dc" points="566.32,-170.18 566.32,-194.18 604.47,-194.18 604.47,-170.18 566.32,-170.18"/>
<text xml:space="preserve" text-anchor="start" x="572.32" y="-179.48" font-family="Arial" font-size="9.00" fill="#167d8d">PK/FK</text>
<polygon fill="none" stroke="#bdd1dc" points="604.47,-170.18 604.47,-194.18 650.53,-194.18 650.53,-170.18 604.47,-170.18"/>
<text xml:space="preserve" text-anchor="start" x="610.47" y="-179.18" font-family="Arial" font-size="10.00">UserId</text>
<polygon fill="none" stroke="#bdd1dc" points="650.53,-170.18 650.53,-194.18 679.69,-194.18 679.69,-170.18 650.53,-170.18"/>
<text xml:space="preserve" text-anchor="start" x="656.53" y="-179.48" font-family="Arial" font-size="9.00" fill="#536475">uuid</text>
<polygon fill="none" stroke="#bdd1dc" points="566.32,-146.18 566.32,-170.18 604.47,-170.18 604.47,-146.18 566.32,-146.18"/>
<text xml:space="preserve" text-anchor="start" x="572.32" y="-155.48" font-family="Arial" font-size="9.00" fill="#183b56"> </text>
<polygon fill="none" stroke="#bdd1dc" points="604.47,-146.18 604.47,-170.18 650.53,-170.18 650.53,-146.18 604.47,-146.18"/>
<text xml:space="preserve" text-anchor="start" x="610.47" y="-155.18" font-family="Arial" font-size="10.00">Status</text>
<polygon fill="none" stroke="#bdd1dc" points="650.53,-146.18 650.53,-170.18 679.69,-170.18 679.69,-146.18 650.53,-146.18"/>
<text xml:space="preserve" text-anchor="start" x="656.53" y="-155.48" font-family="Arial" font-size="9.00" fill="#536475">int</text>
</g>
<!-- Events&#45;&gt;EventParticipants -->
<g id="edge3" class="edge">
<title>Events&#45;&gt;EventParticipants</title>
<path fill="none" stroke="#167d8d" stroke-width="1.4" d="M423.73,-151.37C465.81,-160.71 517.44,-172.17 557.46,-181.05"/>
<polygon fill="#167d8d" stroke="#167d8d" stroke-width="1.4" points="556.9,-183.43 564.27,-182.56 557.96,-178.65 556.9,-183.43"/>
<text xml:space="preserve" text-anchor="middle" x="479.04" y="-169.4" font-family="Arial" font-size="9.00" fill="#35556b">EventId</text>
<text xml:space="preserve" text-anchor="middle" x="552.85" y="-169.97" font-family="Arial" font-size="9.00" fill="#35556b">0..n</text>
<text xml:space="preserve" text-anchor="middle" x="437.21" y="-159.02" font-family="Arial" font-size="9.00" fill="#35556b">1</text>
</g>
<!-- EventInvitations -->
<g id="node3" class="node">
<title>EventInvitations</title>
<polygon fill="white" stroke="none" points="561.04,-329.18 561.04,-475.58 684.98,-475.58 684.98,-329.18 561.04,-329.18"/>
<polygon fill="#183b56" stroke="none" points="561.04,-449.18 561.04,-475.58 684.98,-475.58 684.98,-449.18 561.04,-449.18"/>
<polygon fill="none" stroke="#bdd1dc" points="561.04,-449.18 561.04,-475.58 684.98,-475.58 684.98,-449.18 561.04,-449.18"/>
<text xml:space="preserve" text-anchor="start" x="576.66" y="-459.78" font-family="Arial" font-weight="bold" font-size="12.00" fill="white">EventInvitations</text>
<polygon fill="none" stroke="#bdd1dc" points="561.04,-425.18 561.04,-449.18 585.04,-449.18 585.04,-425.18 561.04,-425.18"/>
<text xml:space="preserve" text-anchor="start" x="567.04" y="-434.48" font-family="Arial" font-size="9.00" fill="#183b56">PK</text>
<polygon fill="none" stroke="#bdd1dc" points="585.04,-425.18 585.04,-449.18 655.96,-449.18 655.96,-425.18 585.04,-425.18"/>
<text xml:space="preserve" text-anchor="start" x="591.04" y="-434.18" font-family="Arial" font-size="10.00">Id</text>
<polygon fill="none" stroke="#bdd1dc" points="655.96,-425.18 655.96,-449.18 684.98,-449.18 684.98,-425.18 655.96,-425.18"/>
<text xml:space="preserve" text-anchor="start" x="661.96" y="-434.48" font-family="Arial" font-size="9.00" fill="#536475">uuid</text>
<polygon fill="none" stroke="#bdd1dc" points="561.04,-401.18 561.04,-425.18 585.04,-425.18 585.04,-401.18 561.04,-401.18"/>
<text xml:space="preserve" text-anchor="start" x="567.04" y="-410.48" font-family="Arial" font-size="9.00" fill="#167d8d">FK</text>
<polygon fill="none" stroke="#bdd1dc" points="585.04,-401.18 585.04,-425.18 655.96,-425.18 655.96,-401.18 585.04,-401.18"/>
<text xml:space="preserve" text-anchor="start" x="591.04" y="-410.18" font-family="Arial" font-size="10.00">EventId</text>
<polygon fill="none" stroke="#bdd1dc" points="655.96,-401.18 655.96,-425.18 684.98,-425.18 684.98,-401.18 655.96,-401.18"/>
<text xml:space="preserve" text-anchor="start" x="661.96" y="-410.48" font-family="Arial" font-size="9.00" fill="#536475">uuid</text>
<polygon fill="none" stroke="#bdd1dc" points="561.04,-377.18 561.04,-401.18 585.04,-401.18 585.04,-377.18 561.04,-377.18"/>
<text xml:space="preserve" text-anchor="start" x="567.04" y="-386.48" font-family="Arial" font-size="9.00" fill="#167d8d">FK</text>
<polygon fill="none" stroke="#bdd1dc" points="585.04,-377.18 585.04,-401.18 655.96,-401.18 655.96,-377.18 585.04,-377.18"/>
<text xml:space="preserve" text-anchor="start" x="591.04" y="-386.18" font-family="Arial" font-size="10.00">InviteeUserId</text>
<polygon fill="none" stroke="#bdd1dc" points="655.96,-377.18 655.96,-401.18 684.98,-401.18 684.98,-377.18 655.96,-377.18"/>
<text xml:space="preserve" text-anchor="start" x="661.96" y="-386.48" font-family="Arial" font-size="9.00" fill="#536475">uuid</text>
<polygon fill="none" stroke="#bdd1dc" points="561.04,-353.18 561.04,-377.18 585.04,-377.18 585.04,-353.18 561.04,-353.18"/>
<text xml:space="preserve" text-anchor="start" x="567.04" y="-362.48" font-family="Arial" font-size="9.00" fill="#167d8d">FK</text>
<polygon fill="none" stroke="#bdd1dc" points="585.04,-353.18 585.04,-377.18 655.96,-377.18 655.96,-353.18 585.04,-353.18"/>
<text xml:space="preserve" text-anchor="start" x="591.04" y="-362.18" font-family="Arial" font-size="10.00">InviterUserId</text>
<polygon fill="none" stroke="#bdd1dc" points="655.96,-353.18 655.96,-377.18 684.98,-377.18 684.98,-353.18 655.96,-353.18"/>
<text xml:space="preserve" text-anchor="start" x="661.96" y="-362.48" font-family="Arial" font-size="9.00" fill="#536475">uuid</text>
<polygon fill="none" stroke="#bdd1dc" points="561.04,-329.18 561.04,-353.18 585.04,-353.18 585.04,-329.18 561.04,-329.18"/>
<text xml:space="preserve" text-anchor="start" x="567.04" y="-338.48" font-family="Arial" font-size="9.00" fill="#183b56"> </text>
<polygon fill="none" stroke="#bdd1dc" points="585.04,-329.18 585.04,-353.18 655.96,-353.18 655.96,-329.18 585.04,-329.18"/>
<text xml:space="preserve" text-anchor="start" x="591.04" y="-338.18" font-family="Arial" font-size="10.00">Status</text>
<polygon fill="none" stroke="#bdd1dc" points="655.96,-329.18 655.96,-353.18 684.98,-353.18 684.98,-329.18 655.96,-329.18"/>
<text xml:space="preserve" text-anchor="start" x="661.96" y="-338.48" font-family="Arial" font-size="9.00" fill="#536475">int</text>
</g>
<!-- Events&#45;&gt;EventInvitations -->
<g id="edge5" class="edge">
<title>Events&#45;&gt;EventInvitations</title>
<path fill="none" stroke="#167d8d" stroke-width="1.4" d="M423.73,-209.03C464.89,-249.16 515.18,-298.2 554.81,-336.85"/>
<polygon fill="#167d8d" stroke="#167d8d" stroke-width="1.4" points="552.83,-338.34 559.56,-341.48 556.26,-334.84 552.83,-338.34"/>
<text xml:space="preserve" text-anchor="middle" x="479.04" y="-279.11" font-family="Arial" font-size="9.00" fill="#35556b">EventId</text>
<text xml:space="preserve" text-anchor="middle" x="555.06" y="-324.36" font-family="Arial" font-size="9.00" fill="#35556b">0..n</text>
<text xml:space="preserve" text-anchor="middle" x="429.74" y="-222.23" font-family="Arial" font-size="9.00" fill="#35556b">1</text>
</g>
<!-- EventCoverMediaReferences -->
<g id="node4" class="node">
<title>EventCoverMediaReferences</title>
<polygon fill="white" stroke="none" points="534.3,-21.18 534.3,-95.58 711.71,-95.58 711.71,-21.18 534.3,-21.18"/>
<polygon fill="#183b56" stroke="none" points="534.3,-69.18 534.3,-95.58 711.71,-95.58 711.71,-69.18 534.3,-69.18"/>
<polygon fill="none" stroke="#bdd1dc" points="534.3,-69.18 534.3,-95.58 711.71,-95.58 711.71,-69.18 534.3,-69.18"/>
<text xml:space="preserve" text-anchor="start" x="540.3" y="-79.78" font-family="Arial" font-weight="bold" font-size="12.00" fill="white">EventCoverMediaReferences</text>
<polygon fill="none" stroke="#bdd1dc" points="534.3,-45.18 534.3,-69.18 593.25,-69.18 593.25,-45.18 534.3,-45.18"/>
<text xml:space="preserve" text-anchor="start" x="540.3" y="-54.48" font-family="Arial" font-size="9.00" fill="#167d8d">PK/FK</text>
<polygon fill="none" stroke="#bdd1dc" points="593.25,-45.18 593.25,-69.18 661.76,-69.18 661.76,-45.18 593.25,-45.18"/>
<text xml:space="preserve" text-anchor="start" x="599.25" y="-54.18" font-family="Arial" font-size="10.00">EventId</text>
<polygon fill="none" stroke="#bdd1dc" points="661.76,-45.18 661.76,-69.18 711.71,-69.18 711.71,-45.18 661.76,-45.18"/>
<text xml:space="preserve" text-anchor="start" x="667.76" y="-54.48" font-family="Arial" font-size="9.00" fill="#536475">uuid</text>
<polygon fill="none" stroke="#bdd1dc" points="534.3,-21.18 534.3,-45.18 593.25,-45.18 593.25,-21.18 534.3,-21.18"/>
<text xml:space="preserve" text-anchor="start" x="540.3" y="-30.48" font-family="Arial" font-size="9.00" fill="#167d8d">FK</text>
<polygon fill="none" stroke="#bdd1dc" points="593.25,-21.18 593.25,-45.18 661.76,-45.18 661.76,-21.18 593.25,-21.18"/>
<text xml:space="preserve" text-anchor="start" x="599.25" y="-30.18" font-family="Arial" font-size="10.00">MediaId</text>
<polygon fill="none" stroke="#bdd1dc" points="661.76,-21.18 661.76,-45.18 711.71,-45.18 711.71,-21.18 661.76,-21.18"/>
<text xml:space="preserve" text-anchor="start" x="667.76" y="-30.48" font-family="Arial" font-size="9.00" fill="#536475">uuid</text>
</g>
<!-- Events&#45;&gt;EventCoverMediaReferences -->
<g id="edge8" class="edge">
<title>Events&#45;&gt;EventCoverMediaReferences</title>
<path fill="none" stroke="#167d8d" stroke-width="1.4" d="M423.73,-113.21C455.5,-104.42 492.72,-94.13 526.27,-84.85"/>
<polygon fill="#167d8d" stroke="#167d8d" stroke-width="1.4" points="526.58,-87.31 532.67,-83.08 525.27,-82.58 526.58,-87.31"/>
<text xml:space="preserve" text-anchor="middle" x="479.04" y="-103.63" font-family="Arial" font-size="9.00" fill="#35556b">EventId</text>
<text xml:space="preserve" text-anchor="middle" x="517.95" y="-77" font-family="Arial" font-size="9.00" fill="#35556b">0..1</text>
<text xml:space="preserve" text-anchor="middle" x="440.49" y="-113.32" font-family="Arial" font-size="9.00" fill="#35556b">1</text>
</g>
<!-- AspNetUsers -->
<g id="node5" class="node">
<title>AspNetUsers</title>
<polygon fill="white" stroke="none" points="0,-319.78 0,-392.98 119.53,-392.98 119.53,-319.78 0,-319.78"/>
<polygon fill="#6b7d8c" stroke="none" points="0,-366.58 0,-392.98 119.53,-392.98 119.53,-366.58 0,-366.58"/>
<polygon fill="none" stroke="#bdd1dc" points="0,-366.58 0,-392.98 119.53,-392.98 119.53,-366.58 0,-366.58"/>
<text xml:space="preserve" text-anchor="start" x="22.09" y="-377.18" font-family="Arial" font-weight="bold" font-size="12.00" fill="white">AspNetUsers</text>
<polygon fill="none" stroke="#bdd1dc" points="0,-343.78 0,-366.58 119.53,-366.58 119.53,-343.78 0,-343.78"/>
<text xml:space="preserve" text-anchor="start" x="6" y="-352.48" font-family="Arial" font-size="9.00" fill="#667788">tham chiếu từ sơ đồ khác</text>
<polygon fill="none" stroke="#bdd1dc" points="0,-319.78 0,-343.78 39.4,-343.78 39.4,-319.78 0,-319.78"/>
<text xml:space="preserve" text-anchor="start" x="6" y="-329.08" font-family="Arial" font-size="9.00" fill="#183b56">PK</text>
<polygon fill="none" stroke="#bdd1dc" points="39.4,-319.78 39.4,-343.78 75.13,-343.78 75.13,-319.78 39.4,-319.78"/>
<text xml:space="preserve" text-anchor="start" x="45.4" y="-328.78" font-family="Arial" font-size="10.00">Id</text>
<polygon fill="none" stroke="#bdd1dc" points="75.13,-319.78 75.13,-343.78 119.53,-343.78 119.53,-319.78 75.13,-319.78"/>
<text xml:space="preserve" text-anchor="start" x="81.13" y="-329.08" font-family="Arial" font-size="9.00" fill="#536475">uuid</text>
</g>
<!-- AspNetUsers&#45;&gt;Events -->
<g id="edge2" class="edge">
<title>AspNetUsers&#45;&gt;Events</title>
<path fill="none" stroke="#167d8d" stroke-width="1.4" d="M100.42,-320.05C118.18,-304.17 139.58,-285.56 159.53,-269.58 192.08,-243.51 229.02,-216.17 261.33,-192.96"/>
<polygon fill="#167d8d" stroke="#167d8d" stroke-width="1.4" points="262.6,-195.07 266.86,-189 259.74,-191.09 262.6,-195.07"/>
<text xml:space="preserve" text-anchor="middle" x="194.05" y="-272.28" font-family="Arial" font-size="9.00" fill="#35556b">CreatedByUserId</text>
<text xml:space="preserve" text-anchor="middle" x="251.87" y="-188.2" font-family="Arial" font-size="9.00" fill="#35556b">0..n</text>
<text xml:space="preserve" text-anchor="middle" x="116.7" y="-312.46" font-family="Arial" font-size="9.00" fill="#35556b">1</text>
</g>
<!-- AspNetUsers&#45;&gt;EventParticipants -->
<g id="edge4" class="edge">
<title>AspNetUsers&#45;&gt;EventParticipants</title>
<path fill="none" stroke="#167d8d" stroke-width="1.4" d="M119.5,-355.3C205.05,-351.89 367.53,-338.43 494.3,-286.38 517.07,-277.03 539.68,-262.93 559.41,-248.61"/>
<polygon fill="#167d8d" stroke="#167d8d" stroke-width="1.4" points="560.67,-250.73 564.84,-244.6 557.75,-246.79 560.67,-250.73"/>
<text xml:space="preserve" text-anchor="middle" x="346.17" y="-344.9" font-family="Arial" font-size="9.00" fill="#35556b">UserId</text>
<text xml:space="preserve" text-anchor="middle" x="549.88" y="-244.03" font-family="Arial" font-size="9.00" fill="#35556b">0..n</text>
<text xml:space="preserve" text-anchor="middle" x="135.24" y="-359.03" font-family="Arial" font-size="9.00" fill="#35556b">1</text>
</g>
<!-- AspNetUsers&#45;&gt;EventInvitations -->
<g id="edge6" class="edge">
<title>AspNetUsers&#45;&gt;EventInvitations</title>
<path fill="none" stroke="#167d8d" stroke-width="1.4" d="M95.68,-392.92C113.17,-408.6 135.68,-425.18 159.53,-433.38 292.79,-479.18 460.12,-447.82 552.57,-423.43"/>
<polygon fill="#167d8d" stroke="#167d8d" stroke-width="1.4" points="553.1,-425.82 559.23,-421.64 551.83,-421.09 553.1,-425.82"/>
<text xml:space="preserve" text-anchor="middle" x="346.17" y="-459.49" font-family="Arial" font-size="9.00" fill="#35556b">InviteeUserId</text>
<text xml:space="preserve" text-anchor="middle" x="544.53" y="-415.44" font-family="Arial" font-size="9.00" fill="#35556b">0..n</text>
<text xml:space="preserve" text-anchor="middle" x="102.54" y="-405.77" font-family="Arial" font-size="9.00" fill="#35556b">1</text>
</g>
<!-- AspNetUsers&#45;&gt;EventInvitations -->
<g id="edge7" class="edge">
<title>AspNetUsers&#45;&gt;EventInvitations</title>
<path fill="none" stroke="#167d8d" stroke-width="1.4" d="M119.5,-361.19C223.78,-369.74 440.73,-387.52 552.35,-396.67"/>
<polygon fill="#167d8d" stroke="#167d8d" stroke-width="1.4" points="551.9,-399.09 559.07,-397.22 552.3,-394.2 551.9,-399.09"/>
<text xml:space="preserve" text-anchor="middle" x="346.17" y="-388.14" font-family="Arial" font-size="9.00" fill="#35556b">InviterUserId</text>
<text xml:space="preserve" text-anchor="middle" x="546.42" y="-386.27" font-family="Arial" font-size="9.00" fill="#35556b">0..n</text>
<text xml:space="preserve" text-anchor="middle" x="134.27" y="-366.91" font-family="Arial" font-size="9.00" fill="#35556b">1</text>
</g>
<!-- MediaAssets -->
<g id="node6" class="node">
<title>MediaAssets</title>
<polygon fill="white" stroke="none" points="0,-23.78 0,-96.98 119.53,-96.98 119.53,-23.78 0,-23.78"/>
<polygon fill="#6b7d8c" stroke="none" points="0,-70.58 0,-96.98 119.53,-96.98 119.53,-70.58 0,-70.58"/>
<polygon fill="none" stroke="#bdd1dc" points="0,-70.58 0,-96.98 119.53,-96.98 119.53,-70.58 0,-70.58"/>
<text xml:space="preserve" text-anchor="start" x="23.08" y="-81.18" font-family="Arial" font-weight="bold" font-size="12.00" fill="white">MediaAssets</text>
<polygon fill="none" stroke="#bdd1dc" points="0,-47.78 0,-70.58 119.53,-70.58 119.53,-47.78 0,-47.78"/>
<text xml:space="preserve" text-anchor="start" x="6" y="-56.48" font-family="Arial" font-size="9.00" fill="#667788">tham chiếu từ sơ đồ khác</text>
<polygon fill="none" stroke="#bdd1dc" points="0,-23.78 0,-47.78 39.4,-47.78 39.4,-23.78 0,-23.78"/>
<text xml:space="preserve" text-anchor="start" x="6" y="-33.08" font-family="Arial" font-size="9.00" fill="#183b56">PK</text>
<polygon fill="none" stroke="#bdd1dc" points="39.4,-23.78 39.4,-47.78 75.13,-47.78 75.13,-23.78 39.4,-23.78"/>
<text xml:space="preserve" text-anchor="start" x="45.4" y="-32.78" font-family="Arial" font-size="10.00">Id</text>
<polygon fill="none" stroke="#bdd1dc" points="75.13,-23.78 75.13,-47.78 119.53,-47.78 119.53,-23.78 75.13,-23.78"/>
<text xml:space="preserve" text-anchor="start" x="81.13" y="-33.08" font-family="Arial" font-size="9.00" fill="#536475">uuid</text>
</g>
<!-- MediaAssets&#45;&gt;Events -->
<g id="edge1" class="edge">
<title>MediaAssets&#45;&gt;Events</title>
<path fill="none" stroke="#167d8d" stroke-width="1.4" d="M119.35,-75.62C159.91,-86.17 214.54,-100.39 259.92,-112.19"/>
<polygon fill="#167d8d" stroke="#167d8d" stroke-width="1.4" points="259.12,-114.52 266.52,-113.91 260.36,-109.78 259.12,-114.52"/>
<text xml:space="preserve" text-anchor="middle" x="194.05" y="-106.7" font-family="Arial" font-size="9.00" fill="#35556b">CoverMediaId</text>
<text xml:space="preserve" text-anchor="middle" x="255.46" y="-100.91" font-family="Arial" font-size="9.00" fill="#35556b">0..n</text>
<text xml:space="preserve" text-anchor="middle" x="132.45" y="-83.75" font-family="Arial" font-size="9.00" fill="#35556b">0..1</text>
</g>
<!-- MediaAssets&#45;&gt;EventCoverMediaReferences -->
<g id="edge9" class="edge">
<title>MediaAssets&#45;&gt;EventCoverMediaReferences</title>
<path fill="none" stroke="#167d8d" stroke-width="1.4" d="M119.11,-41.03C160.33,-28.42 217.18,-13.12 268.56,-6.58 337,2.14 355.36,2.22 423.78,-6.58 457.63,-10.92 493.94,-19.29 526.12,-28.05"/>
<polygon fill="#167d8d" stroke="#167d8d" stroke-width="1.4" points="525.2,-30.33 532.6,-29.84 526.51,-25.61 525.2,-30.33"/>
<text xml:space="preserve" text-anchor="middle" x="346.17" y="-9.28" font-family="Arial" font-size="9.00" fill="#35556b">MediaId</text>
<text xml:space="preserve" text-anchor="middle" x="521.7" y="-16.67" font-family="Arial" font-size="9.00" fill="#35556b">0..n</text>
<text xml:space="preserve" text-anchor="middle" x="135.93" y="-40.78" font-family="Arial" font-size="9.00" fill="#35556b">1</text>
</g>
</g>
</svg>
