<?xml version="1.0" encoding="UTF-8" standalone="no"?>
<!DOCTYPE svg PUBLIC "-//W3C//DTD SVG 1.1//EN"
 "http://www.w3.org/Graphics/SVG/1.1/DTD/svg11.dtd">
<!-- Generated by graphviz version 14.0.1 (20251006.0113)
 -->
<!-- Title: ERD Pages: 1 -->
<svg width="457pt" height="325pt"
 viewBox="0.00 0.00 457.00 325.00" xmlns="http://www.w3.org/2000/svg" xmlns:xlink="http://www.w3.org/1999/xlink">
<g id="graph0" class="graph" transform="scale(1 1) rotate(0) translate(18 306.8)">
<title>ERD</title>
<polygon fill="white" stroke="none" points="-18,18 -18,-306.8 438.61,-306.8 438.61,18 -18,18"/>
<text xml:space="preserve" text-anchor="middle" x="210.31" y="-269.5" font-family="Arial" font-size="17.00">Admin — Kiểm duyệt</text>
<!-- ModerationActions -->
<g id="node1" class="node">
<title>ModerationActions</title>
<polygon fill="white" stroke="none" points="267.06,0 267.06,-170.4 420.61,-170.4 420.61,0 267.06,0"/>
<polygon fill="#183b56" stroke="none" points="267.06,-144 267.06,-170.4 420.61,-170.4 420.61,-144 267.06,-144"/>
<polygon fill="none" stroke="#bdd1dc" points="267.06,-144 267.06,-170.4 420.61,-170.4 420.61,-144 267.06,-144"/>
<text xml:space="preserve" text-anchor="start" x="289.5" y="-154.6" font-family="Arial" font-weight="bold" font-size="12.00" fill="white">ModerationActions</text>
<polygon fill="none" stroke="#bdd1dc" points="267.06,-120 267.06,-144 297.06,-144 297.06,-120 267.06,-120"/>
<text xml:space="preserve" text-anchor="start" x="273.06" y="-129.3" font-family="Arial" font-size="9.00" fill="#183b56">PK</text>
<polygon fill="none" stroke="#bdd1dc" points="297.06,-120 297.06,-144 384.09,-144 384.09,-120 297.06,-120"/>
<text xml:space="preserve" text-anchor="start" x="303.06" y="-129" font-family="Arial" font-size="10.00">Id</text>
<polygon fill="none" stroke="#bdd1dc" points="384.09,-120 384.09,-144 420.61,-144 420.61,-120 384.09,-120"/>
<text xml:space="preserve" text-anchor="start" x="390.09" y="-129.3" font-family="Arial" font-size="9.00" fill="#536475">uuid</text>
<polygon fill="none" stroke="#bdd1dc" points="267.06,-96 267.06,-120 297.06,-120 297.06,-96 267.06,-96"/>
<text xml:space="preserve" text-anchor="start" x="273.06" y="-105.3" font-family="Arial" font-size="9.00" fill="#167d8d">FK</text>
<polygon fill="none" stroke="#bdd1dc" points="297.06,-96 297.06,-120 384.09,-120 384.09,-96 297.06,-96"/>
<text xml:space="preserve" text-anchor="start" x="303.06" y="-105" font-family="Arial" font-size="10.00">ModeratorUserId</text>
<polygon fill="none" stroke="#bdd1dc" points="384.09,-96 384.09,-120 420.61,-120 420.61,-96 384.09,-96"/>
<text xml:space="preserve" text-anchor="start" x="390.09" y="-105.3" font-family="Arial" font-size="9.00" fill="#536475">uuid</text>
<polygon fill="none" stroke="#bdd1dc" points="267.06,-72 267.06,-96 297.06,-96 297.06,-72 267.06,-72"/>
<text xml:space="preserve" text-anchor="start" x="273.06" y="-81.3" font-family="Arial" font-size="9.00" fill="#167d8d">FK</text>
<polygon fill="none" stroke="#bdd1dc" points="297.06,-72 297.06,-96 384.09,-96 384.09,-72 297.06,-72"/>
<text xml:space="preserve" text-anchor="start" x="303.06" y="-81" font-family="Arial" font-size="10.00">ReportId</text>
<polygon fill="none" stroke="#bdd1dc" points="384.09,-72 384.09,-96 420.61,-96 420.61,-72 384.09,-72"/>
<text xml:space="preserve" text-anchor="start" x="390.09" y="-81.3" font-family="Arial" font-size="9.00" fill="#536475">uuid ?</text>
<polygon fill="none" stroke="#bdd1dc" points="267.06,-48 267.06,-72 297.06,-72 297.06,-48 267.06,-48"/>
<text xml:space="preserve" text-anchor="start" x="273.06" y="-57.3" font-family="Arial" font-size="9.00" fill="#167d8d">FK</text>
<polygon fill="none" stroke="#bdd1dc" points="297.06,-48 297.06,-72 384.09,-72 384.09,-48 297.06,-48"/>
<text xml:space="preserve" text-anchor="start" x="303.06" y="-57" font-family="Arial" font-size="10.00">SubjectUserId</text>
<polygon fill="none" stroke="#bdd1dc" points="384.09,-48 384.09,-72 420.61,-72 420.61,-48 384.09,-48"/>
<text xml:space="preserve" text-anchor="start" x="390.09" y="-57.3" font-family="Arial" font-size="9.00" fill="#536475">uuid</text>
<polygon fill="none" stroke="#bdd1dc" points="267.06,-24 267.06,-48 297.06,-48 297.06,-24 267.06,-24"/>
<text xml:space="preserve" text-anchor="start" x="273.06" y="-33.3" font-family="Arial" font-size="9.00" fill="#af7722">REF</text>
<polygon fill="none" stroke="#bdd1dc" points="297.06,-24 297.06,-48 384.09,-48 384.09,-24 297.06,-24"/>
<text xml:space="preserve" text-anchor="start" x="303.06" y="-33" font-family="Arial" font-size="10.00">TargetId</text>
<polygon fill="none" stroke="#bdd1dc" points="384.09,-24 384.09,-48 420.61,-48 420.61,-24 384.09,-24"/>
<text xml:space="preserve" text-anchor="start" x="390.09" y="-33.3" font-family="Arial" font-size="9.00" fill="#536475">uuid</text>
<polygon fill="none" stroke="#bdd1dc" points="267.06,0 267.06,-24 297.06,-24 297.06,0 267.06,0"/>
<text xml:space="preserve" text-anchor="start" x="273.06" y="-9.3" font-family="Arial" font-size="9.00" fill="#af7722">REF</text>
<polygon fill="none" stroke="#bdd1dc" points="297.06,0 297.06,-24 384.09,-24 384.09,0 297.06,0"/>
<text xml:space="preserve" text-anchor="start" x="303.06" y="-9" font-family="Arial" font-size="10.00">TargetType</text>
<polygon fill="none" stroke="#bdd1dc" points="384.09,0 384.09,-24 420.61,-24 420.61,0 384.09,0"/>
<text xml:space="preserve" text-anchor="start" x="390.09" y="-9.3" font-family="Arial" font-size="9.00" fill="#536475">int</text>
</g>
<!-- UserModerationStates -->
<g id="node2" class="node">
<title>UserModerationStates</title>
<polygon fill="white" stroke="none" points="274.15,-210 274.15,-260.4 413.52,-260.4 413.52,-210 274.15,-210"/>
<polygon fill="#183b56" stroke="none" points="274.15,-234 274.15,-260.4 413.52,-260.4 413.52,-234 274.15,-234"/>
<polygon fill="none" stroke="#bdd1dc" points="274.15,-234 274.15,-260.4 413.52,-260.4 413.52,-234 274.15,-234"/>
<text xml:space="preserve" text-anchor="start" x="280.15" y="-244.6" font-family="Arial" font-weight="bold" font-size="12.00" fill="white">UserModerationStates</text>
<polygon fill="none" stroke="#bdd1dc" points="274.15,-210 274.15,-234 322.46,-234 322.46,-210 274.15,-210"/>
<text xml:space="preserve" text-anchor="start" x="280.15" y="-219.3" font-family="Arial" font-size="9.00" fill="#167d8d">PK/FK</text>
<polygon fill="none" stroke="#bdd1dc" points="322.46,-210 322.46,-234 374.21,-234 374.21,-210 322.46,-210"/>
<text xml:space="preserve" text-anchor="start" x="328.46" y="-219" font-family="Arial" font-size="10.00">UserId</text>
<polygon fill="none" stroke="#bdd1dc" points="374.21,-210 374.21,-234 413.52,-234 413.52,-210 374.21,-210"/>
<text xml:space="preserve" text-anchor="start" x="380.21" y="-219.3" font-family="Arial" font-size="9.00" fill="#536475">uuid</text>
</g>
<!-- AspNetUsers -->
<g id="node3" class="node">
<title>AspNetUsers</title>
<polygon fill="white" stroke="none" points="0,-124.6 0,-197.8 119.53,-197.8 119.53,-124.6 0,-124.6"/>
<polygon fill="#6b7d8c" stroke="none" points="0,-171.4 0,-197.8 119.53,-197.8 119.53,-171.4 0,-171.4"/>
<polygon fill="none" stroke="#bdd1dc" points="0,-171.4 0,-197.8 119.53,-197.8 119.53,-171.4 0,-171.4"/>
<text xml:space="preserve" text-anchor="start" x="22.09" y="-182" font-family="Arial" font-weight="bold" font-size="12.00" fill="white">AspNetUsers</text>
<polygon fill="none" stroke="#bdd1dc" points="0,-148.6 0,-171.4 119.53,-171.4 119.53,-148.6 0,-148.6"/>
<text xml:space="preserve" text-anchor="start" x="6" y="-157.3" font-family="Arial" font-size="9.00" fill="#667788">tham chiếu từ sơ đồ khác</text>
<polygon fill="none" stroke="#bdd1dc" points="0,-124.6 0,-148.6 39.4,-148.6 39.4,-124.6 0,-124.6"/>
<text xml:space="preserve" text-anchor="start" x="6" y="-133.9" font-family="Arial" font-size="9.00" fill="#183b56">PK</text>
<polygon fill="none" stroke="#bdd1dc" points="39.4,-124.6 39.4,-148.6 75.13,-148.6 75.13,-124.6 39.4,-124.6"/>
<text xml:space="preserve" text-anchor="start" x="45.4" y="-133.6" font-family="Arial" font-size="10.00">Id</text>
<polygon fill="none" stroke="#bdd1dc" points="75.13,-124.6 75.13,-148.6 119.53,-148.6 119.53,-124.6 75.13,-124.6"/>
<text xml:space="preserve" text-anchor="start" x="81.13" y="-133.9" font-family="Arial" font-size="9.00" fill="#536475">uuid</text>
</g>
<!-- AspNetUsers&#45;&gt;ModerationActions -->
<g id="edge1" class="edge">
<title>AspNetUsers&#45;&gt;ModerationActions</title>
<path fill="none" stroke="#167d8d" stroke-width="1.4" d="M119.21,-145.45C159.54,-134.59 213.77,-119.98 258.73,-107.86"/>
<polygon fill="#167d8d" stroke="#167d8d" stroke-width="1.4" points="259.13,-110.29 265.25,-106.1 257.86,-105.56 259.13,-110.29"/>
<text xml:space="preserve" text-anchor="middle" x="193.3" y="-137.15" font-family="Arial" font-size="9.00" fill="#35556b">ModeratorUserId</text>
<text xml:space="preserve" text-anchor="middle" x="250.55" y="-99.92" font-family="Arial" font-size="9.00" fill="#35556b">0..n</text>
<text xml:space="preserve" text-anchor="middle" x="135.96" y="-145.68" font-family="Arial" font-size="9.00" fill="#35556b">1</text>
</g>
<!-- AspNetUsers&#45;&gt;ModerationActions -->
<g id="edge3" class="edge">
<title>AspNetUsers&#45;&gt;ModerationActions</title>
<path fill="none" stroke="#167d8d" stroke-width="1.4" d="M113.63,-124.67C127.96,-116.36 143.85,-108.5 159.53,-103.4 190.95,-93.19 226.85,-88.26 258.51,-86"/>
<polygon fill="#167d8d" stroke="#167d8d" stroke-width="1.4" points="258.38,-88.47 265.2,-85.57 258.06,-83.58 258.38,-88.47"/>
<text xml:space="preserve" text-anchor="middle" x="193.3" y="-106.1" font-family="Arial" font-size="9.00" fill="#35556b">SubjectUserId</text>
<text xml:space="preserve" text-anchor="middle" x="251.48" y="-76.56" font-family="Arial" font-size="9.00" fill="#35556b">0..n</text>
<text xml:space="preserve" text-anchor="middle" x="130.58" y="-120.58" font-family="Arial" font-size="9.00" fill="#35556b">1</text>
</g>
<!-- AspNetUsers&#45;&gt;UserModerationStates -->
<g id="edge4" class="edge">
<title>AspNetUsers&#45;&gt;UserModerationStates</title>
<path fill="none" stroke="#167d8d" stroke-width="1.4" d="M119.21,-176.53C161.58,-187.65 219.31,-202.79 265.5,-214.91"/>
<polygon fill="#167d8d" stroke="#167d8d" stroke-width="1.4" points="264.84,-217.27 272.23,-216.68 266.08,-212.53 264.84,-217.27"/>
<text xml:space="preserve" text-anchor="middle" x="193.3" y="-205.33" font-family="Arial" font-size="9.00" fill="#35556b">UserId</text>
<text xml:space="preserve" text-anchor="middle" x="261.2" y="-203.65" font-family="Arial" font-size="9.00" fill="#35556b">0..1</text>
<text xml:space="preserve" text-anchor="middle" x="132.29" y="-184.69" font-family="Arial" font-size="9.00" fill="#35556b">1</text>
</g>
<!-- ContentReports -->
<g id="node4" class="node">
<title>ContentReports</title>
<polygon fill="white" stroke="none" points="0,-11.6 0,-84.8 119.53,-84.8 119.53,-11.6 0,-11.6"/>
<polygon fill="#6b7d8c" stroke="none" points="0,-58.4 0,-84.8 119.53,-84.8 119.53,-58.4 0,-58.4"/>
<polygon fill="none" stroke="#bdd1dc" points="0,-58.4 0,-84.8 119.53,-84.8 119.53,-58.4 0,-58.4"/>
<text xml:space="preserve" text-anchor="start" x="14.44" y="-69" font-family="Arial" font-weight="bold" font-size="12.00" fill="white">ContentReports</text>
<polygon fill="none" stroke="#bdd1dc" points="0,-35.6 0,-58.4 119.53,-58.4 119.53,-35.6 0,-35.6"/>
<text xml:space="preserve" text-anchor="start" x="6" y="-44.3" font-family="Arial" font-size="9.00" fill="#667788">tham chiếu từ sơ đồ khác</text>
<polygon fill="none" stroke="#bdd1dc" points="0,-11.6 0,-35.6 39.4,-35.6 39.4,-11.6 0,-11.6"/>
<text xml:space="preserve" text-anchor="start" x="6" y="-20.9" font-family="Arial" font-size="9.00" fill="#183b56">PK</text>
<polygon fill="none" stroke="#bdd1dc" points="39.4,-11.6 39.4,-35.6 75.13,-35.6 75.13,-11.6 39.4,-11.6"/>
<text xml:space="preserve" text-anchor="start" x="45.4" y="-20.6" font-family="Arial" font-size="10.00">Id</text>
<polygon fill="none" stroke="#bdd1dc" points="75.13,-11.6 75.13,-35.6 119.53,-35.6 119.53,-11.6 75.13,-11.6"/>
<text xml:space="preserve" text-anchor="start" x="81.13" y="-20.9" font-family="Arial" font-size="9.00" fill="#536475">uuid</text>
</g>
<!-- ContentReports&#45;&gt;ModerationActions -->
<g id="edge2" class="edge">
<title>ContentReports&#45;&gt;ModerationActions</title>
<path fill="none" stroke="#167d8d" stroke-width="1.4" d="M119.22,-43.31C151.26,-41.79 191.56,-41.75 227.06,-47.4 237.34,-49.04 247.94,-51.44 258.37,-54.26"/>
<polygon fill="#167d8d" stroke="#167d8d" stroke-width="1.4" points="257.63,-56.59 265.04,-56.14 258.96,-51.88 257.63,-56.59"/>
<text xml:space="preserve" text-anchor="middle" x="193.3" y="-50.1" font-family="Arial" font-size="9.00" fill="#35556b">ReportId</text>
<text xml:space="preserve" text-anchor="middle" x="254.2" y="-42.91" font-family="Arial" font-size="9.00" fill="#35556b">0..n</text>
<text xml:space="preserve" text-anchor="middle" x="134.92" y="-47.15" font-family="Arial" font-size="9.00" fill="#35556b">0..1</text>
</g>
</g>
</svg>
